<?xml version="1.0" encoding="utf-8"?>
<!-- Generator: Adobe Illustrator 16.0.0, SVG Export Plug-In . SVG Version: 6.00 Build 0)  -->
<!DOCTYPE svg PUBLIC "-//W3C//DTD SVG 1.1//EN" "http://www.w3.org/Graphics/SVG/1.1/DTD/svg11.dtd">
<svg version="1.1" id="Layer_1" xmlns="http://www.w3.org/2000/svg" xmlns:xlink="http://www.w3.org/1999/xlink" x="0px" y="0px"
	 width="936px" height="730px" viewBox="0 0 936 730" enable-background="new 0 0 936 730" xml:space="preserve">
<g>
	<g>
		<g>
			<rect x="-110.002" y="-113.702" fill="none" width="1131.023" height="958.919"/>
		</g>
	</g>
	<g>
		<path fill="#ECE2E1" d="M780.886,222.731c-0.123,0.072-18.983-64.673-56.527-112.135c-24.096-30.381-1.063-74.993,37.741-73.536
			c0.539,0.019,1.202,0.038,1.811,0.066C825.303,40.2,855.967,177.024,780.886,222.731z"/>
		<path fill="#ECE2E1" d="M108.045,151.926c-10.207,12.827,5.605,30.133,19.298,21.13c22.194-14.616,51.242-28.579,83.889-31.376
			c24.545-2.129,43.002-2.472,56.661-1.938c14.224,0.522,20.736-17.616,9.327-26.084c-15.021-11.128-37.341-20.042-68.911-15.998
			C164.872,103.179,130.085,124.235,108.045,151.926z"/>
		<path fill="#ECE2E1" d="M158.031,565.609h617.03c79.934,0,125.646-93.211,74.779-154.99c-6.517-7.851-14.361-14.831-23.785-20.409
			c-8.476-5.037-16.381-8.941-23.835-11.955c-40.383-16.01-64.956-56.689-60.001-99.783c7.755-68.059-2.613-150.169-80.288-194.081
			c-79.122-44.744-135.375-26.958-170.485-0.703c-24.521,18.32-56.199,24.863-85.4,15.664c-7.28-2.283-15.831-3.716-25.783-3.716
			c-19.006,0-32.233,10.464-41.388,23.928c-18.845,27.761-51.317,42.944-84.826,41.269c-36.203-1.77-84.745,6.979-138.55,46.684
			C40.188,263.057-3.451,446.01,91.934,539.063C109.563,556.247,133.395,565.609,158.031,565.609z"/>
		<g>
			<path fill="#1ED1A6" d="M345.373,376.489c-0.863-2.767-24.125-140.313-89.602-197.403
				c-65.501-57.095-71.855-58.223-71.855-58.223s-9.352,316.564,117.889,300.158C429.046,404.613,345.373,376.489,345.373,376.489z"
				/>
			<path fill="#06B185" d="M316.45,418.856c-12.078-38.897-25.13-81.323-32.581-106.487c-3.513-11.863-9.786-27.105-17.542-43.847
				l28.639-39.073c-0.929-1.603-1.851-3.186-2.76-4.762l-28.345,38.592c-8.125-17.269-17.618-35.822-27.145-53.698l15.217-33.814
				c-1.361-1.181-2.701-2.337-3.991-3.48l-14.256,31.653c-19.562-36.453-38.581-69.051-45.222-80.344
				c-3.77-2.579-4.548-2.732-4.548-2.732s-0.049,1.718-0.106,4.843c4.47,7.606,15.668,26.758,28.945,50.662l-28.405-8.382
				c0.063,1.749,0.149,3.521,0.207,5.319l31.704,9.359c8.176,14.795,16.956,31.087,25.352,47.315l-53.668-6.824
				c0.159,1.727,0.333,3.462,0.507,5.199l55.973,7.087c10.824,21.177,20.792,42.016,27.75,59.229l-44.8,3.846l-32.476-22.784
				c0.411,2.356,0.846,4.711,1.291,7.063l23.319,16.365l-19.617,1.699c0.379,1.634,0.763,3.326,1.155,4.954l73.068-6.237
				c1.965,5.183,3.612,9.923,4.892,14.211c2.919,9.866,6.671,22.335,10.917,36.183l-72.512,7.094
				c0.685,1.665,1.405,3.273,2.154,4.863l71.884-7.035c6.197,20.241,13.229,43.086,19.934,64.735
				C313.122,419.452,314.832,419.155,316.45,418.856z"/>
		</g>
		<g>
			<path fill="#1ED1A6" d="M297.851,408.554c-1.359-1.816-56.185-93.441-118.74-116.008c-62.558-22.509-67.405-21.537-67.405-21.537
				s81.195,228.387,167.425,181.314C365.327,405.371,297.851,408.554,297.851,408.554z"/>
			<path fill="#06B185" d="M288.982,446.798c-19.397-24.471-40.504-51.056-52.82-66.971c-5.797-7.456-14.5-16.603-24.688-26.377
				l9.607-35.817c-1.106-0.919-2.216-1.768-3.302-2.669l-9.496,35.412c-10.592-10.011-22.535-20.647-34.281-30.762l1.467-28.333
				c-1.291-0.501-2.572-0.936-3.812-1.365l-1.369,26.532c-24.087-20.595-46.697-38.563-54.561-44.78
				c-3.43-0.795-4.021-0.657-4.021-0.657s0.431,1.213,1.287,3.426c5.288,4.217,18.584,14.777,34.696,28.153l-22.585,1.854
				c0.542,1.27,1.069,2.496,1.628,3.799l25.221-2.127c9.937,8.252,20.698,17.412,31.209,26.701l-40.168,10
				c0.591,1.175,1.188,2.354,1.789,3.587l41.897-10.469c13.604,12.082,26.492,24.171,36.229,34.531l-30.893,15.172l-29.487-7.228
				c0.955,1.568,1.918,3.127,2.889,4.674l21.193,5.237l-13.555,6.636c0.741,1.11,1.487,2.1,2.207,3.201l50.39-24.676
				c2.862,3.123,5.37,6.059,7.444,8.714c4.813,6.213,10.988,14.043,17.84,22.831l-49.777,25.121
				c0.959,1.037,1.924,1.943,2.894,2.954l49.32-24.965c10.04,12.639,21.367,26.974,32.232,40.614
				C286.773,448.052,287.917,447.48,288.982,446.798z"/>
		</g>
		<g>
			<path fill="#1ED1A6" d="M727.822,317.837c1.302-1.756,56.144-93.384,118.711-115.947c62.535-22.566,67.408-21.595,67.408-21.595
				S832.715,408.68,746.532,361.667C660.346,314.654,727.822,317.837,727.822,317.837z"/>
			<path fill="#06B185" d="M736.648,356.081c19.372-24.41,40.5-51.056,52.806-66.911c5.813-7.508,14.489-16.61,24.676-26.437
				l-9.547-35.794c1.105-0.884,2.185-1.787,3.248-2.634l9.549,35.413c10.585-10.071,22.493-20.648,34.265-30.763l-1.465-28.393
				c1.258-0.442,2.547-0.931,3.823-1.365l1.325,26.534c24.104-20.539,46.712-38.55,54.561-44.734
				c3.445-0.827,4.053-0.704,4.053-0.704s-0.479,1.217-1.319,3.483c-5.252,4.164-18.552,14.777-34.695,28.093l22.586,1.914
				c-0.49,1.211-1.087,2.497-1.608,3.74l-25.241-2.125c-9.878,8.31-20.696,17.469-31.208,26.703l40.167,10.057
				c-0.537,1.175-1.188,2.354-1.758,3.535l-41.927-10.474c-13.606,12.083-26.493,24.201-36.23,34.586l30.859,15.171l29.522-7.286
				c-0.924,1.619-1.92,3.192-2.848,4.752L839,297.603l13.564,6.636c-0.745,1.111-1.493,2.166-2.229,3.261l-50.371-24.735
				c-2.803,3.123-5.377,6.059-7.428,8.771c-4.79,6.215-10.947,14.046-17.856,22.773l49.798,25.181
				c-0.975,0.977-1.932,1.944-2.889,2.895l-49.325-24.965c-10.061,12.699-21.389,26.973-32.254,40.617
				C738.844,357.395,737.698,356.765,736.648,356.081z"/>
		</g>
		<g>
			<path fill="#1ED1A6" d="M522.835,299.557c-0.341-2.723-31.166-130.613,4.388-204.436c35.554-73.821,40.735-77.149,40.735-77.149
				s125.585,271.039,9.118,304.003C460.608,355,522.835,299.557,522.835,299.557z"/>
			<path fill="#06B185" d="M563.543,325.628c-3.957-38.239-8.334-79.881-11.277-104.471c-1.295-11.616-1.563-27.188-0.973-44.564
				l-39.337-23.218c0.133-1.739,0.399-3.474,0.556-5.205l38.903,22.973c0.695-17.963,1.993-37.603,3.706-56.637L529.26,90.823
				c0.752-1.534,1.494-3.045,2.228-4.489l24.124,22.154c3.464-38.865,7.815-74.211,9.384-86.457c2.322-3.653,2.963-4.06,2.963-4.06
				s0.618,1.447,1.808,4.144c-0.968,8.251-3.591,29.033-6.272,54.691l21.484-17.827c0.651,1.541,1.194,3.111,1.851,4.713
				l-24.055,19.888c-1.586,15.858-3.162,33.212-4.392,50.426l44.019-25.823c0.461,1.553,1.005,3.112,1.5,4.678l-45.922,26.927
				c-1.544,22.374-2.42,44.16-2.035,61.689l40.226-13.344l19.751-31.796c0.485,2.199,0.957,4.432,1.434,6.621l-14.13,22.838
				l17.604-5.825c0.323,1.606,0.643,3.197,0.95,4.772l-65.733,21.684c0.254,5.217,0.489,9.947,1.067,14.165
				c1.126,9.592,2.434,21.824,3.934,35.424l65.513-20.78c0,1.709-0.013,3.353-0.042,5.043l-64.987,20.564
				c2.203,19.821,4.553,42.198,6.692,63.581C566.636,324.84,565.076,325.24,563.543,325.628z"/>
		</g>
		<g>
			<g>
				<path fill="#D3D3D3" d="M813.318,527.313H607.365c-15.018,0-27.117-12.193-27.117-27.101V193.128
					c0-14.956,12.1-27.056,27.117-27.056h205.953c15.01,0,27.111,12.1,27.111,27.056v307.085
					C840.43,515.12,828.328,527.313,813.318,527.313z"/>
				<path fill="#F2F2F2" d="M808.009,527.313H601.962c-15.011,0-27.116-12.193-27.116-27.101V193.128
					c0-14.956,12.105-27.056,27.116-27.056h206.047c14.918,0,27.018,12.1,27.018,27.056v307.085
					C835.026,515.12,822.927,527.313,808.009,527.313z"/>
				<g>
					<g>
						<g>
							<path fill="#E0E0E0" d="M621.861,249.846c-1.64,8.01,0.784,16.505,6.929,21.965c4.913,4.479,12.92,7.561,25.385,4.736
								c29.293-6.606,23.061-61.204-1.869-66.323C633.252,206.276,624.742,235.72,621.861,249.846z"/>
							<g>
								<path fill="#FF6161" d="M646.027,201.549c-3.498-1.198-7.326-1.198-10.823,0c-7.912,2.756-21.903,10.618-21.903,31.537
									c0,16.856,9.646,27.433,17.461,33.254c5.869,4.343,13.843,4.343,19.769,0c7.865-5.821,17.399-16.398,17.399-33.254
									C667.93,212.167,653.938,204.305,646.027,201.549z"/>
								<g>
									<path fill="#E04866" d="M646.027,201.549c-1.208-0.414-2.47-0.659-3.805-0.807c0.291,1.344,0.427,2.729,0.626,4.142
										c0.738,9.122,2.113,5.832,1.741,14.584c-0.371,8.752-3.975,3.251-2.113,15.64c1.742,12.419,0,23.345-1.861,25.893
										c-1.2,1.714-7.325,4.227-14.362,1.618c1.512,1.406,3.031,2.62,4.509,3.721c5.869,4.343,13.843,4.343,19.769,0
										c7.865-5.821,17.399-16.398,17.399-33.254C667.93,212.167,653.938,204.305,646.027,201.549z"/>
								</g>
								<path fill="#FFC7C7" d="M632.511,204.674c0,0-11.821,6.753-14.093,17.069c-2.271,10.315-1.996,14.796,2.702,16.794
									C625.817,240.533,649.15,198.841,632.511,204.674z"/>
							</g>
						</g>
						<g>
							<path fill="#E0E0E0" d="M619.031,352.513c-1.75,8.01,0.787,16.505,6.817,21.965c5.024,4.479,12.919,7.577,25.384,4.736
								c29.413-6.606,23.18-61.203-1.75-66.321C630.429,308.927,621.918,338.416,619.031,352.513z"/>
							<g>
								<path fill="#FF6161" d="M643.199,304.216c-3.495-1.198-7.321-1.198-10.818,0c-8.018,2.751-21.904,10.6-21.904,31.537
									c0,16.821,9.528,27.433,17.342,33.233c5.869,4.364,13.959,4.364,19.828,0c7.813-5.8,17.46-16.412,17.46-33.233
									C665.106,314.815,651.115,306.967,643.199,304.216z"/>
								<g>
									<path fill="#E04866" d="M643.199,304.216c-1.322-0.414-2.559-0.659-3.8-0.807c0.279,1.344,0.427,2.729,0.506,4.139
										c0.744,9.125,2.233,5.835,1.861,14.587s-3.975,3.251-2.233,15.625c1.861,12.434,0,23.359-1.741,25.906
										c-1.203,1.716-7.325,4.229-14.362,1.635c1.512,1.391,3.028,2.605,4.389,3.685c5.869,4.364,13.959,4.364,19.828,0
										c7.813-5.8,17.46-16.412,17.46-33.233C665.106,314.815,651.115,306.967,643.199,304.216z"/>
								</g>
								<path fill="#FFC7C7" d="M629.688,307.34c0,0-11.847,6.753-14.093,17.069c-2.271,10.314-1.997,14.798,2.702,16.794
									C622.994,343.199,646.326,301.507,629.688,307.34z"/>
							</g>
						</g>
						<g>
							<path fill="#E0E0E0" d="M616.096,455.234c-1.638,7.955,0.784,16.451,6.93,21.91c5.025,4.42,12.918,7.518,25.383,4.736
								c29.294-6.605,23.062-61.203-1.869-66.314C627.598,411.654,619.095,441.022,616.096,455.234z"/>
							<g>
								<path fill="#FF6161" d="M640.261,406.943c-3.497-1.318-7.246-1.318-10.719,0c-8.016,2.751-22.008,10.568-22.008,31.416
									c0,16.941,9.647,27.494,17.461,33.315c5.869,4.343,13.959,4.343,19.828,0c7.813-5.821,17.431-16.374,17.431-33.315
									C662.254,417.512,648.292,409.694,640.261,406.943z"/>
								<g>
									<path fill="#E04866" d="M640.261,406.943c-1.208-0.533-2.442-0.719-3.695-0.899c0.183,1.376,0.438,2.702,0.517,4.171
										c0.744,9.186,2.232,5.836,1.861,14.648c-0.372,8.692-4.095,3.191-2.233,15.625s0,23.359-1.861,25.845
										c-1.2,1.775-7.205,4.229-14.243,1.576c1.394,1.451,2.912,2.664,4.39,3.766c5.869,4.343,13.959,4.343,19.828,0
										c7.813-5.821,17.431-16.374,17.431-33.315C662.254,417.512,648.292,409.694,640.261,406.943z"/>
								</g>
								<path fill="#FFC7C7" d="M626.864,410.066c0,0-11.941,6.694-14.213,16.949c-2.15,10.376-1.996,14.799,2.702,16.795
									C620.051,445.927,643.384,404.233,626.864,410.066z"/>
							</g>
						</g>
					</g>
					<g>
						<g>
							<path fill="#E0E0E0" d="M750.503,249.846c-1.638,8.01,0.784,16.505,6.93,21.965c5.024,4.479,12.918,7.561,25.383,4.736
								c29.294-6.606,23.062-61.204-1.868-66.323C761.935,206.276,753.499,235.72,750.503,249.846z"/>
							<g>
								<path fill="#FF6161" d="M774.668,201.549c-3.497-1.198-7.314-1.198-10.762,0c-7.973,2.756-21.964,10.618-21.964,31.537
									c0,16.856,9.647,27.433,17.46,33.254c5.869,4.343,13.951,4.343,19.828,0c7.813-5.821,17.398-16.398,17.398-33.254
									C796.629,212.167,782.681,204.305,774.668,201.549z"/>
								<g>
									<path fill="#E04866" d="M774.668,201.549c-1.208-0.414-2.442-0.659-3.732-0.807c0.22,1.344,0.466,2.729,0.554,4.142
										c0.745,9.122,2.2,5.832,1.844,14.584c-0.359,8.752-4.076,3.251-2.216,15.64c1.856,12.419,0,23.345-1.86,25.893
										c-1.201,1.714-7.225,4.227-14.284,1.618c1.434,1.406,2.952,2.62,4.43,3.721c5.869,4.343,13.951,4.343,19.828,0
										c7.813-5.821,17.398-16.398,17.398-33.254C796.629,212.167,782.681,204.305,774.668,201.549z"/>
								</g>
								<path fill="#FFC7C7" d="M761.261,204.674c0,0-11.931,6.753-14.201,17.069c-2.162,10.315-1.996,14.796,2.701,16.794
									C754.458,240.533,777.791,198.841,761.261,204.674z"/>
							</g>
						</g>
						<g>
							<path fill="#E0E0E0" d="M747.68,352.513c-1.693,8.01,0.784,16.505,6.844,21.965c4.991,4.479,12.999,7.577,25.462,4.736
								c29.301-6.606,23.068-61.203-1.861-66.321C759.07,308.927,750.559,338.416,747.68,352.513z"/>
							<g>
								<path fill="#FF6161" d="M771.845,304.216c-3.497-1.198-7.326-1.198-10.823,0c-7.912,2.751-21.902,10.6-21.902,31.537
									c0,16.821,9.565,27.433,17.426,33.233c5.891,4.364,13.873,4.364,19.746,0c7.848-5.8,17.457-16.412,17.457-33.233
									C793.748,314.815,779.757,306.967,771.845,304.216z"/>
								<g>
									<path fill="#E04866" d="M771.845,304.216c-1.215-0.414-2.55-0.659-3.805-0.807c0.292,1.344,0.427,2.729,0.604,4.139
										c0.669,9.125,2.136,5.835,1.764,14.587s-3.974,3.251-2.121,15.625c1.749,12.434,0,23.359-1.853,25.906
										c-1.201,1.716-7.326,4.229-14.362,1.635c1.512,1.391,3.031,2.605,4.474,3.685c5.891,4.364,13.873,4.364,19.746,0
										c7.848-5.8,17.457-16.412,17.457-33.233C793.748,314.815,779.757,306.967,771.845,304.216z"/>
								</g>
								<path fill="#FFC7C7" d="M758.329,307.34c0,0-11.822,6.753-14.093,17.069c-2.271,10.314-1.996,14.798,2.701,16.794
									S774.968,301.507,758.329,307.34z"/>
							</g>
						</g>
						<g>
							<path fill="#E0E0E0" d="M744.736,455.234c-1.638,7.955,0.787,16.451,6.93,21.91c5.025,4.42,12.918,7.518,25.383,4.736
								c29.381-6.605,23.152-61.203-1.767-66.314C756.247,411.654,747.735,441.022,744.736,455.234z"/>
							<g>
								<path fill="#FF6161" d="M768.92,406.943c-3.451-1.318-7.224-1.318-10.722,0c-8.031,2.751-22.011,10.568-22.011,31.416
									c0,16.941,9.636,27.494,17.448,33.315c5.869,4.343,13.959,4.343,19.828,0c7.813-5.821,17.461-16.374,17.461-33.315
									C790.925,417.512,776.933,409.694,768.92,406.943z"/>
								<g>
									<path fill="#E04866" d="M768.92,406.943c-1.227-0.533-2.461-0.719-3.703-0.899c0.186,1.376,0.428,2.702,0.507,4.171
										c0.744,9.186,2.232,5.836,1.86,14.648c-0.372,8.692-3.985,3.191-2.233,15.625c1.861,12.434,0,23.359-1.752,25.845
										c-1.237,1.775-7.314,4.229-14.351,1.576c1.506,1.451,2.984,2.664,4.388,3.766c5.869,4.343,13.959,4.343,19.828,0
										c7.813-5.821,17.461-16.374,17.461-33.315C790.925,417.512,776.934,409.694,768.92,406.943z"/>
								</g>
								<path fill="#FFC7C7" d="M755.506,410.066c0,0-11.938,6.694-14.096,16.949c-2.269,10.376-2.073,14.799,2.674,16.795
									C748.806,445.927,772.074,404.233,755.506,410.066z"/>
							</g>
						</g>
					</g>
				</g>
				<path fill="#E0E0E0" d="M704.936,496.584L704.936,496.584c-2.426,0-4.422-2.111-4.422-4.542V205.15
					c0-2.473,1.996-4.499,4.422-4.499l0,0c2.512,0,4.543,2.026,4.543,4.499v286.892
					C709.479,494.473,707.447,496.584,704.936,496.584z"/>
			</g>
			<g>
				<path fill="#D95F76" d="M165.29,375.895h-33.244c-10.091,0-18.273,8.183-18.273,18.288v123.135
					c0,10.105,8.183,18.288,18.273,18.288h33.244l16.113-132.58L165.29,375.895z"/>
				<g>
					<path fill="#F2F2F2" d="M216.248,438.315v58.026c0,15.016-12.104,27.117-27.056,27.117H38.331
						c-14.929,0-27.036-12.102-27.036-27.117v-58.026c0-14.896,12.107-26.996,27.036-26.996h150.861
						C204.144,411.319,216.248,423.419,216.248,438.315z"/>
					<path fill="#D3D3D3" d="M216.248,440.64v58.027c0,14.979-12.104,27.113-27.056,27.113H38.331
						c-14.929,0-27.036-12.135-27.036-27.113V440.64c0-14.896,12.107-26.996,27.036-26.996h150.861
						C204.144,413.644,216.248,425.743,216.248,440.64z"/>
					<path fill="#E0E0E0" d="M203.004,469.713L203.004,469.713c0,0.979-0.886,1.938-1.937,1.938H28.124
						c-1.058,0-1.934-0.958-1.934-1.938l0,0c0-1.095,0.875-1.937,1.934-1.937h172.943
						C202.118,467.776,203.004,468.618,203.004,469.713z"/>
					<g>
						<g>
							<path fill="#E0E0E0" d="M67.053,448.294c0,9.11-7.434,16.539-16.609,16.539c-9.185,0-16.63-7.429-16.63-16.539
								c0-9.229,7.445-16.658,16.63-16.658C59.619,431.636,67.053,439.064,67.053,448.294z"/>
							<path fill="#FFFFFF" d="M63.672,440.613c0,9.23-7.447,16.658-16.621,16.658c-9.172,0-16.605-7.428-16.605-16.658
								c0-9.11,7.434-16.539,16.605-16.539C56.225,424.074,63.672,431.503,63.672,440.613z"/>
							<path fill="#F2F2F2" d="M63.672,444.167c0,9.23-7.447,16.658-16.621,16.658c-9.172,0-16.605-7.428-16.605-16.658
								c0-9.11,7.434-16.538,16.605-16.538C56.225,427.629,63.672,435.057,63.672,444.167z"/>
							<path fill="#D3D3D3" d="M30.445,444.167c0,0.545,0.02,0.986,0.049,1.416h33.113c0.035-0.43,0.064-0.871,0.064-1.416
								c0-0.436-0.03-0.867-0.064-1.296H30.494C30.465,443.3,30.445,443.731,30.445,444.167z"/>
						</g>
						<g>
							<path fill="#E0E0E0" d="M121.243,448.008c0,9.229-7.439,16.658-16.61,16.658c-9.17,0-16.617-7.429-16.617-16.658
								c0-9.11,7.447-16.656,16.617-16.656C113.804,431.352,121.243,438.897,121.243,448.008z"/>
							<path fill="#FFFFFF" d="M117.872,440.445c0,9.111-7.442,16.539-16.626,16.539c-9.18,0-16.614-7.428-16.614-16.539
								c0-9.229,7.434-16.657,16.614-16.657C110.43,423.788,117.872,431.216,117.872,440.445z"/>
							<path fill="#F2F2F2" d="M117.872,444c0,9.109-7.442,16.538-16.626,16.538c-9.18,0-16.614-7.429-16.614-16.538
								c0-9.23,7.434-16.658,16.614-16.658C110.43,427.342,117.872,434.77,117.872,444z"/>
							<path fill="#D3D3D3" d="M84.631,444c0,0.435,0.021,0.866,0.058,1.296H117.8c0.051-0.43,0.071-0.861,0.071-1.296
								c0-0.436-0.02-0.987-0.071-1.416H84.688C84.652,443.013,84.631,443.564,84.631,444z"/>
						</g>
						<g>
							<path fill="#E0E0E0" d="M175.432,447.829c0,9.121-7.441,16.549-16.615,16.549c-9.171,0-16.599-7.428-16.599-16.549
								c0-9.219,7.428-16.647,16.599-16.647C167.991,431.182,175.432,438.61,175.432,447.829z"/>
							<path fill="#FFFFFF" d="M172.055,440.159c0,9.11-7.428,16.657-16.601,16.657c-9.185,0-16.634-7.547-16.634-16.657
								c0-9.23,7.45-16.658,16.634-16.658C164.626,423.501,172.055,430.929,172.055,440.159z"/>
							<path fill="#F2F2F2" d="M172.055,443.713c0,9.229-7.428,16.658-16.601,16.658c-9.185,0-16.634-7.429-16.634-16.658
								c0-9.111,7.45-16.655,16.634-16.655C164.626,427.058,172.055,434.602,172.055,443.713z"/>
							<path fill="#D3D3D3" d="M138.82,443.713c0,0.435,0.028,0.867,0.076,1.414h33.114c0.028-0.547,0.045-0.979,0.045-1.414
								c0-0.436-0.017-0.867-0.045-1.296h-33.114C138.848,442.846,138.82,443.277,138.82,443.713z"/>
						</g>
					</g>
					<g>
						<g>
							<path fill="#E0E0E0" d="M67.053,502.26c0,9.228-7.434,16.655-16.609,16.655c-9.185,0-16.63-7.428-16.63-16.655
								c0-9.113,7.445-16.541,16.63-16.541C59.619,485.719,67.053,493.146,67.053,502.26z"/>
							<path fill="#FFFFFF" d="M63.672,494.696c0,9.11-7.447,16.649-16.621,16.649c-9.172,0-16.605-7.539-16.605-16.649
								c0-9.23,7.434-16.658,16.605-16.658C56.225,478.038,63.672,485.466,63.672,494.696z"/>
							<path fill="#F2F2F2" d="M63.672,498.249c0,9.229-7.447,16.658-16.621,16.658c-9.172,0-16.605-7.429-16.605-16.658
								c0-9.198,7.434-16.658,16.605-16.658C56.225,481.591,63.672,489.051,63.672,498.249z"/>
							<path fill="#D3D3D3" d="M30.445,498.249c0,0.436,0.02,0.867,0.049,1.407h33.113c0.035-0.54,0.064-0.972,0.064-1.407
								c0-0.435-0.03-0.866-0.064-1.299H30.494C30.465,497.383,30.445,497.814,30.445,498.249z"/>
						</g>
						<g>
							<path fill="#E0E0E0" d="M121.243,502.09c0,9.11-7.439,16.561-16.61,16.561c-9.17,0-16.617-7.45-16.617-16.561
								c0-9.23,7.447-16.658,16.617-16.658C113.804,485.432,121.243,492.859,121.243,502.09z"/>
							<path fill="#FFFFFF" d="M117.872,494.409c0,9.23-7.442,16.658-16.626,16.658c-9.18,0-16.614-7.428-16.614-16.658
								c0-9.11,7.434-16.538,16.614-16.538C110.43,477.871,117.872,485.299,117.872,494.409z"/>
							<path fill="#F2F2F2" d="M117.872,497.966c0,9.227-7.442,16.654-16.626,16.654c-9.18,0-16.614-7.428-16.614-16.654
								c0-9.114,7.434-16.542,16.614-16.542C110.43,481.424,117.872,488.852,117.872,497.966z"/>
							<path fill="#D3D3D3" d="M84.631,497.966c0,0.551,0.021,0.983,0.058,1.412H117.8c0.051-0.429,0.071-0.861,0.071-1.412
								c0-0.439-0.02-0.87-0.071-1.3H84.688C84.652,497.096,84.631,497.526,84.631,497.966z"/>
						</g>
						<g>
							<path fill="#E0E0E0" d="M175.432,501.803c0,9.23-7.441,16.658-16.615,16.658c-9.171,0-16.599-7.428-16.599-16.658
								c0-9.11,7.428-16.538,16.599-16.538C167.991,485.265,175.432,492.692,175.432,501.803z"/>
							<path fill="#FFFFFF" d="M172.055,494.242c0,9.109-7.428,16.538-16.601,16.538c-9.185,0-16.634-7.429-16.634-16.538
								c0-9.23,7.45-16.659,16.634-16.659C164.626,477.583,172.055,485.012,172.055,494.242z"/>
							<path fill="#F2F2F2" d="M172.055,497.795c0,9.11-7.428,16.562-16.601,16.562c-9.185,0-16.634-7.451-16.634-16.562
								c0-9.23,7.45-16.658,16.634-16.658C164.626,481.137,172.055,488.564,172.055,497.795z"/>
							<path fill="#D3D3D3" d="M138.82,497.795c0,0.436,0.028,0.867,0.076,1.296h33.114c0.028-0.429,0.045-0.86,0.045-1.296
								s-0.017-0.979-0.045-1.416h-33.114C138.848,496.816,138.82,497.359,138.82,497.795z"/>
						</g>
					</g>
				</g>
				<rect x="153.277" y="375.895" fill="#FF8F8F" width="204.291" height="159.711"/>
				<g>
					<path fill="#FFD6D6" d="M244.824,375.895h-71.46v159.711h70.939c14.879-15.889,24.412-37.308,26.687-66.273
						C275.504,410.836,257.021,387.537,244.824,375.895z"/>
				</g>
				<g>
					<path fill="#FFFFFF" d="M224.74,375.895h-71.462v159.711h70.954c14.879-15.889,24.412-37.308,26.687-66.273
						C255.432,410.836,236.949,387.537,224.74,375.895z"/>
				</g>
				<rect x="184.092" y="403.601" fill="#E0E0E0" width="9.567" height="104.299"/>
			</g>
			<g>
				<path fill="#FF6161" d="M517.977,206.091L517.977,206.091c-2.598-1.413-4.371-4.189-4.371-7.26V157.11H343.965v41.721
					c0,3.071-1.677,5.847-4.391,7.26l-4.431,2.282c-25.137,13.047-40.915,39.007-40.915,67.354v268.416
					c0,15.712,60.234,28.518,134.577,28.518c74.287,0,134.577-12.806,134.577-28.518V280.665
					C563.382,249.293,545.887,220.571,517.977,206.091z"/>
				<path fill="#E04866" d="M563.382,544.144V280.665c0-31.372-17.495-60.094-45.405-74.574l0,0
					c-2.598-1.413-4.371-4.189-4.371-7.26V157.11h-55.087c-0.39,9.221-0.373,20.648,1.216,29.814
					c3.212,18.643,13.966,33.054,14.853,42.809c0.884,9.754,3.176,72.938-8.166,108.304c-11.343,35.305-21.765,46.444,0.406,71.052
					c22.171,24.719,29.598,53.991,15.628,85.583c-7.564,17.26-7.855,50.028-6.569,76.144
					C526.942,566.809,563.382,556.34,563.382,544.144z"/>
				<path fill="#311E69" d="M513.605,195.25v-18.841l-2.436-1.187l-156.802,11.662c0,0,14.244,14.306,72.781,16.486
					C460.616,204.624,492.489,199.705,513.605,195.25z"/>
				<path fill="#FFE6E6" d="M529.071,149.087l-200.421-0.238l-1.387,32.05h0.053c0,7.029,45.434,12.759,101.514,12.759
					c56.02,0,101.514-5.73,101.514-12.759L529.071,149.087z"/>
				<g>
					<path fill="#FFC7C7" d="M530.345,180.899l-1.273-31.812l-99.923-0.14c7.519,9.267,20.54,15.336,15.064,22.311
						c-4.091,5.172-7.347,14.329-7.726,22.337C489.004,193.127,530.345,187.643,530.345,180.899z"/>
				</g>
				<path fill="#FFFFFF" d="M529.071,148.849c0,7.042-44.845,12.73-100.24,12.73c-55.336,0-100.181-5.688-100.181-12.73
					c0-7.049,44.845-12.754,100.181-12.754C484.227,136.094,529.071,141.799,529.071,148.849z"/>
				<path fill="#FF8C8C" d="M338.846,213.932c0,0-27.269,22.893-32.812,38.691c-5.598,15.827,61.358,23.554,104.091,14.911
					c42.749-8.705-27.878-29.431-44.284-37.801C349.377,221.363,338.846,213.932,338.846,213.932z"/>
				<path fill="#FFE6E6" d="M294.229,417.526c86.34,34.853,182.757,34.853,269.153,0V285.054
					c-86.396,34.911-182.813,34.911-269.153-0.001V417.526z"/>
				<path fill="#FFC7BF" d="M466.421,338.036c-11.343,35.305-21.765,46.444,0.406,71.052c8.485,9.38,14.769,19.469,18.598,30.057
					c26.51-4.134,52.652-11.417,77.957-21.618V285.054c-29.456,11.885-59.959,19.708-90.839,23.476
					C471.118,319.224,469.167,329.468,466.421,338.036z"/>
				<path fill="#E04866" d="M364.696,199.607c0,0,32.366,9.338,89.125,7.177c0,0-18.255,12.417-51.457,10.531
					C369.221,215.46,364.696,199.607,364.696,199.607z"/>
				<path fill="#FF8C8C" d="M305.69,446.558v92.763c0,2.406,0.97,4.585,2.701,6.18c5.975,5.663,23.965,16.602,72.675,16.229
					c4.409-0.022,8.065-3.45,8.425-7.821c1.486-18.372,2.676-64.335-19.949-76.961c-17.212-9.485-36.817-25.505-49.767-36.771
					C314.28,435.412,305.69,439.323,305.69,446.558z"/>
			</g>
			<g>
				<path fill="#FF8A54" d="M668.085,305.342l-3.274-2.524h-51.756h-51.637l-3.31,2.524c-6.651,5.217-10.546,13.204-10.546,21.634
					v227.479c0,4.657,29.416,8.466,65.492,8.466c36.195,0,65.604-3.809,65.604-8.466V326.976
					C678.659,318.546,674.765,310.559,668.085,305.342z"/>
				<g>
					<g>
						<path fill="#F7B783" d="M633.668,520.387l20.386,2.006c7.508,0.758,13.007,7.466,12.249,14.938
							c-0.758,7.582-7.466,13.082-14.973,12.324l-20.387-2.006L633.668,520.387z"/>
						<path fill="#FFA378" d="M610.637,545.623c-7.467-0.738-12.967-7.566-12.208-15.033c0.758-7.467,7.466-12.967,14.933-12.209
							l20.307,2.006l-2.725,27.262L610.637,545.623z"/>
					</g>
					<g>
						<path fill="#F7B783" d="M593.89,519.301l20.307,2.005c7.584,0.759,13.086,7.578,12.328,15.054
							c-0.758,7.467-7.466,12.967-15.053,12.208l-20.307-2.005L593.89,519.301z"/>
						<path fill="#FFA378" d="M570.858,544.557c-7.467-0.758-12.967-7.467-12.211-15.053c0.642-7.467,7.469-12.967,14.936-12.209
							l20.307,2.006l-2.725,27.262L570.858,544.557z"/>
					</g>
					<g>
						<path fill="#F7B783" d="M624.746,521.662l-20.248-2.669c-7.46-0.914-12.696-7.854-11.782-15.304
							c1.034-7.449,7.855-12.807,15.423-11.772l20.256,2.554L624.746,521.662z"/>
						<path fill="#FFA378" d="M648.646,497.136c7.458,1.034,12.695,7.897,11.781,15.424c-1.035,7.449-7.855,12.71-15.424,11.772
							l-20.258-2.67l3.648-27.191L648.646,497.136z"/>
					</g>
					<g>
						<path fill="#F7B783" d="M588.669,468.127l20.257-2.67c7.449-1.034,12.687-7.854,11.772-15.424
							c-1.034-7.449-7.855-12.687-15.338-11.772l-20.236,2.669L588.669,468.127z"/>
						<path fill="#FFA378" d="M564.874,443.599c-7.564,0.915-12.802,7.855-11.888,15.305c1.035,7.449,7.855,12.807,15.425,11.772
							l20.258-2.549l-3.545-27.197L564.874,443.599z"/>
					</g>
					<g>
						<path fill="#F7B783" d="M642.468,459.412l7,19.273c2.505,7.058-1.122,14.925-8.181,17.55
							c-7.089,2.508-15.045-1.122-17.551-8.18l-6.998-19.166L642.468,459.412z"/>
						<path fill="#FFA378" d="M609.738,449.61c-2.625-7.058,1.116-14.925,8.181-17.55c7.058-2.504,14.925,1.123,17.55,8.181
							l6.999,19.171l-25.729,9.478L609.738,449.61z"/>
					</g>
					<g>
						<path fill="#F7B783" d="M599.736,501.314l-15.946,12.807c-5.866,4.702-14.501,3.685-19.203-2.181
							c-4.702-5.866-3.806-14.502,2.061-19.204l15.946-12.807L599.736,501.314z"/>
						<path fill="#FFA378" d="M598.54,467.123c5.865-4.702,14.501-3.687,19.293,2.181c4.731,5.866,3.715,14.502-2.15,19.204
							l-15.946,12.807l-17.143-21.385L598.54,467.123z"/>
					</g>
				</g>
				<g>
					<path fill="#FFC5AB" d="M668.085,305.342l-3.274-2.524h-51.756h-2.503c-1.266,8.725-1.399,18.749,2.503,27.119
						c9.09,19.265,26.018,15.208,15.34,35.052c-10.791,19.845-16.259,26.389-7.616,42.493c8.644,16.224,13.59,42.766,3.968,67.715
						c-9.504,24.95-3.289,56.933,3.648,75.915c1.259,3.537,2.205,7.458,2.963,11.459c27.275-0.952,47.302-4.263,47.302-8.115
						V326.976C678.659,318.546,674.765,310.559,668.085,305.342z"/>
				</g>
				<path fill="#311E69" d="M668.085,305.342l-3.274-2.524h-4.864l-85.079,11.168c0,0,14.659,8.05,47.359,9.762
					c27.768,1.511,44.557-0.933,56.043-1.396C677.128,315.68,673.465,309.601,668.085,305.342z"/>
				<g>
					<path fill="#FFE6E6" d="M541.354,303.972v5.492c0,5.079,32.176,9.192,71.701,9.192c39.645,0,71.762-4.113,71.762-9.192v-5.492
						H541.354z"/>
					<path fill="#FFFFFF" d="M684.816,303.972c0,4.161-32.117,7.593-71.762,7.593c-39.525,0-71.701-3.433-71.701-7.593
						c0-4.222,32.176-7.593,71.701-7.593C652.699,296.379,684.816,299.75,684.816,303.972z"/>
				</g>
				<path fill="#FFE6E6" d="M546.242,289.791v5.611v2.921v4.133c0,3.637,29.966,6.562,66.813,6.562
					c36.966,0,66.932-2.924,66.932-6.562v-4.133v-2.921v-5.611H546.242z"/>
				<path fill="#FFFFFF" d="M679.986,289.791c0,2.155-29.966,3.906-66.932,3.906c-36.847,0-66.813-1.751-66.813-3.906
					c0-2.154,29.966-3.905,66.813-3.905C650.021,285.886,679.986,287.637,679.986,289.791z"/>
				<path fill="#732E0E" d="M578.315,327.514c0,0-24.171-3.448-26.52-4.754c0,0-0.571,79.991,0,92.17
					c0.685,12.299-1.664,127.769,2.201,130.117C557.857,547.396,582.635,344.672,578.315,327.514z"/>
				<path fill="#732E0E" d="M583.957,339.643c0,0-8.066,51.92-3.313,55.27c6.918,4.697,20.306-32.331,17.145-43.854
					C596.504,346.242,583.957,339.643,583.957,339.643z"/>
			</g>
			<g>
				<path fill="#894242" d="M261.85,396.448c-0.926-10.066,5.731-13.697,6.968-20.361c1.202-6.643-4.245-60.447-21.182-63.5
					c-16.938,3.053-22.384,56.857-21.174,63.5c1.217,6.664,7.885,10.294,6.96,20.361c-0.447,5.122-4.19,11.37-7.712,16.183
					c-4.198,5.841-6.501,12.849-6.501,20.113v119.3c0,5.026,12.722,9.044,28.428,9.044c15.698,0,28.428-4.018,28.428-9.044v-119.3
					c0-7.265-2.303-14.272-6.519-20.113C266.024,407.818,262.293,401.57,261.85,396.448z"/>
				<g>
					<path fill="#C45269" d="M224.818,442.804v103.806c0,3.329,10.194,5.879,22.817,5.879c12.624,0,22.817-2.55,22.817-5.879
						V442.804H224.818z"/>
					<path fill="#BD4848" d="M270.453,442.804c0,3.213-10.193,5.879-22.817,5.879c-12.623,0-22.817-2.666-22.817-5.879
						c0-3.333,10.194-5.997,22.817-5.997C260.26,436.807,270.453,439.471,270.453,442.804z"/>
				</g>
				<path fill="#544141" d="M242.026,318.63c0,0-12.525,16.503-14.203,52.772c0,0,0.477,10.124,7.125,11.633
					C241.591,384.524,242.026,318.63,242.026,318.63z"/>
				<path fill="#544141" d="M231.149,411.861c0,0-7.693,7.195-9.219,14.603c-1.519,7.406,0,123.528,0,123.528
					s5.446,3.575,10.578,3.575L231.149,411.861z"/>
				<path fill="#FFE6E6" d="M276.064,488.831v-30.859c-12.891,6.024-38.521,0.952-38.521,0.952v29.235
					C251.963,494.043,268.399,491.969,276.064,488.831z"/>
				<g>
					<path fill="#BDA0A0" d="M269.545,412.631c-3.521-4.813-7.252-11.061-7.695-16.183c-0.926-10.066,5.731-13.697,6.968-20.361
						c1.202-6.643-4.245-60.447-21.182-63.5c-0.132,0.016-0.228,0.042-0.371,0.118c1.123,3.441,2.665,9.435,2.372,15.092
						c-0.403,8.698,1.013,15.74,6.049,23.979c5.037,8.299,6.455,23.907,0.809,29.761c-3.082,3.253-9.657,3.545-11.277,6.831
						c-1.63,3.385-2.828,11.687,0.822,16.045c3.598,4.479,11.595,16.769,13.287,25.207c1.36,6.729-0.55,96.703-1.324,130.906
						c10.567-1.396,18.062-4.625,18.062-8.482v-119.3C276.064,425.479,273.761,418.472,269.545,412.631z"/>
				</g>
			</g>
		</g>
		<g>
			<path fill="#06B185" d="M338.04,675.891l-69.592-0.076l-0.515,14.944h0.029c0,3.337,15.789,5.964,35.257,5.964
				c19.474,0,35.261-2.627,35.261-5.964L338.04,675.891z"/>
			<path fill="#1ED1A6" d="M338.04,675.814c0,3.238-15.584,5.924-34.821,5.924c-19.188,0-34.771-2.686-34.771-5.924
				c0-3.356,15.583-6.041,34.771-6.041C322.456,669.773,338.04,672.458,338.04,675.814z"/>
		</g>
		<g>
			<path fill="#F2F2F2" d="M734.414,575.005l30.312,1.586c11.134,0.647,19.831,10.193,19.244,21.411
				c-0.61,11.219-10.192,19.857-21.411,19.298l-30.348-1.668L734.414,575.005z"/>
			<path fill="#1ED1A6" d="M701.864,614.041c-11.099-0.527-19.853-10.192-19.209-21.412c0.528-11.099,10.192-19.843,21.411-19.209
				l30.348,1.585l-2.203,40.627L701.864,614.041z"/>
			<g>
				<path fill="#06B185" d="M729.943,601.98c-4.648-1.673-15.828-0.482-23.037-1.309c-7.097-0.825-9.17-4.006-13.728-5.761
					c-2.783-1.071-6.537-5.762-8.918-9.093c-0.873,2.077-1.517,4.398-1.605,6.811c-0.644,11.22,8.11,20.885,19.209,21.412
					l30.347,1.591l0.708-12.776C731.743,602.599,730.686,602.286,729.943,601.98z"/>
			</g>
			<g>
				<path fill="#E0E0E0" d="M783.97,598.002c0.112-3-0.364-5.822-1.396-8.453c-1.086,3.514-2.548,7.581-3.895,9.263
					c-2.517,3.434-1.374,3.781-12.896,3.396c-11.408-0.385-32.864,0.648-32.864,0.648l0,0l-0.708,12.776l30.348,1.668
					C773.777,617.859,783.359,609.221,783.97,598.002z"/>
			</g>
			<path fill="#0CE5BE" d="M690.134,581.293c0,0,3.094-5.862,13.558-6.205c10.465-0.252,27.312,1.898,27.312,1.898
				S686.896,592.85,690.134,581.293z"/>
			<path fill="#FFFFFF" d="M735.565,577.565c0,0,25.033-0.268,31.103,1.287c6.027,1.555,8.185,2.441,9.078,4.786
				c0.856,2.344-29.077,1.471-34.297,0.018C736.108,582.323,735.565,577.565,735.565,577.565z"/>
		</g>
		<g>
			<path fill="#F2F2F2" d="M673.198,610.533l30.219-1.973c11.214-0.746,20.955,7.807,21.701,19.02
				c0.746,11.208-7.807,20.949-19.02,21.656l-30.329,1.999L673.198,610.533z"/>
			<path fill="#1ED1A6" d="M645.557,653.227c-11.214,0.72-20.955-7.807-21.701-19.02s7.807-20.954,19.02-21.697l30.323-1.977
				l2.571,40.702L645.557,653.227z"/>
			<g>
				<path fill="#06B185" d="M672.025,637.908c-4.899-1.145-15.893,1.364-23.145,1.364c-7.133,0-9.561-2.892-14.25-4.045
					c-2.974-0.706-7.212-4.945-9.979-8.051c-0.695,2.256-0.907,4.619-0.797,7.03c0.746,11.213,10.487,19.739,21.701,19.02
					l30.213-1.991l-0.823-12.81C673.754,638.21,672.761,638.101,672.025,637.908z"/>
			</g>
			<g>
				<path fill="#E0E0E0" d="M725.118,627.58c-0.251-3.01-1.077-5.766-2.35-8.194c-0.729,3.579-1.686,7.77-2.763,9.669
					c-2.192,3.624-1.029,3.851-12.411,4.788c-11.382,0.997-32.648,4.583-32.648,4.583l0,0l0.823,12.81l30.329-1.999
					C717.312,648.529,725.864,638.788,725.118,627.58z"/>
			</g>
			<path fill="#0CE5BE" d="M630.014,622.073c0,0,2.36-6.205,12.628-7.757c10.388-1.551,27.447-1.416,27.447-1.416
				S628.089,633.843,630.014,622.073z"/>
			<path fill="#FFFFFF" d="M674.562,612.895c0,0,24.889-3.176,31.095-2.361c6.205,0.818,8.453,1.523,9.604,3.783
				c1.158,2.256-28.676,4.788-34.105,4.013S674.562,612.895,674.562,612.895z"/>
		</g>
		<g>
			<path fill="#1ED1A6" d="M879.46,621.036c0,14.008-17.91,25.341-39.993,25.341c-22.043,0-39.953-11.333-39.953-25.341
				c0-14.007,17.91-25.34,39.953-25.34C861.55,595.696,879.46,607.029,879.46,621.036z"/>
			<g>
				<path fill="#06B185" d="M826.128,623.22c-13.229-1.422-21.667-3.407-26.457-4.856c-0.104,0.96-0.157,1.813-0.157,2.673
					c0,14.008,17.91,25.341,39.953,25.341c22.083,0,39.993-11.333,39.993-25.341c0-0.832-0.048-1.657-0.174-2.475
					C866.236,620.954,841.923,624.823,826.128,623.22z"/>
			</g>
			<path fill="#3CE5BE" d="M803.356,613.97c0,0,5.02-10.088,19.645-13.557c14.714-3.403,22.043-2.731,27.677-1.675
				C856.415,599.742,841.439,616.175,803.356,613.97z"/>
			<path fill="#1ED1A6" d="M807.67,632.369c0,0-4.625-3.905-1.578-4.842c2.949-1.058,10.232,8.529,24.685,10.188
				c23.326,2.73,40.31-9.031,43.921-12.082c3.568-3.051,2.412,4.406-4.078,8.932c-6.429,4.406-20.915,11.339-36.932,9.769
				C816.747,642.7,807.67,632.369,807.67,632.369z"/>
		</g>
		<g>
			<path fill="#1ED1A6" d="M465.17,617.346c0,13.981-17.911,25.343-40.033,25.343c-22.063,0-39.973-11.361-39.973-25.343
				c0-14.002,17.909-25.365,39.973-25.365C447.259,591.98,465.17,603.344,465.17,617.346z"/>
			<g>
				<path fill="#06B185" d="M411.838,619.416c-13.229-1.337-21.748-3.408-26.462-4.742c-0.159,0.844-0.211,1.697-0.211,2.672
					c0,13.981,17.909,25.343,39.973,25.343c22.122,0,40.033-11.361,40.033-25.343c0-0.946-0.168-1.772-0.259-2.59
					C451.946,617.149,427.552,621.019,411.838,619.416z"/>
			</g>
			<path fill="#3CE5BE" d="M388.969,610.165c0,0,5.029-9.994,19.743-13.438c14.653-3.469,21.968-2.73,27.676-1.794
				C442.065,595.99,427.093,612.378,388.969,610.165z"/>
			<path fill="#1ED1A6" d="M393.32,628.683c0,0-4.625-3.904-1.585-4.961c3.001-0.981,10.24,8.533,24.751,10.188
				c23.266,2.731,40.232-9.031,43.801-12.081c3.688-2.962,2.532,4.525-3.987,8.932c-6.459,4.523-20.983,11.338-36.982,9.769
				C402.457,638.897,393.32,628.683,393.32,628.683z"/>
		</g>
		<path fill="#311E69" d="M545.037,629.644L495.91,214.551c-0.226-1.322-1.404-2.262-2.664-2.098
			c-1.381,0.167-2.264,1.344-2.157,2.665l1.143,9.541h-51.869l-1.188-10.107c-0.165-1.322-1.346-2.262-2.605-2.098
			c-1.321,0.167-2.264,1.344-2.098,2.665l29.299,247.325c-0.045,0.271-0.077,0.426-0.077,0.711c0,0.423,0.088,0.823,0.352,1.187
			l19.552,165.93c0.1,1.195,1.169,2.05,2.35,2.05c0.064,0,0.25-0.005,0.315-0.012c1.262-0.107,2.265-1.284,2.038-2.664
			l-5.401-46.062h51.989l5.447,46.688c0.1,1.195,1.167,2.05,2.35,2.05c0.064,0,0.13-0.005,0.195-0.012
			C544.26,632.2,545.144,631.023,545.037,629.644z M473.559,504.871h51.026c0.328,0,0.646-0.043,0.948-0.113l4.055,34.743h-51.869
			L473.559,504.871z M501.57,303.368h-51.869l-4.1-34.63h51.929L501.57,303.368z M502.2,308.094l4.04,34.63h-51.869l-4.1-34.63
			H502.2z M506.869,347.449l4.04,34.63H459.04l-4.041-34.63H506.869z M511.539,386.805l4.04,34.631H463.71l-4.126-34.631H511.539z
			 M516.209,426.16l4.039,34.631h-51.869l-4.158-34.631H516.209z M520.878,465.516l4.043,34.652
			c-0.071-0.01-0.142-0.022-0.336-0.022h-51.536l-4.16-34.63H520.878z M492.861,229.383l4.039,34.63h-51.869l-4.1-34.63H492.861z
			 M482.388,578.857l-4.16-34.631h51.989l4.04,34.631H482.388z"/>
		<g>
			<path fill="#1E1240" d="M481.705,490.896l-0.747-2.306l10.491-0.606l-1.976,4.763c0,0,4.864,4.485,3.333,6.589
				c-2.206,2.842-20.099,1.648-19.846,0.586C472.961,495.156,481.705,490.896,481.705,490.896z"/>
			<path fill="#1E1240" d="M509.688,452.013l-0.747-2.203l7.705-0.596l0.811,4.632c0,0,4.747,4.569,3.213,6.588
				c-2.086,2.843-19.979,1.649-19.846,0.703C500.823,456.255,509.688,452.013,509.688,452.013z"/>
			<path fill="#FF6161" d="M494.147,246.188l3.138,6.208c0.965,2.129-0.065,4.597-2.118,5.482c-1.761,0.754-2.906,0.937-5.085,1.022
				c-1.916,0.069-3.131-1.607-3.512-4.02c-0.579-3.172-0.118-6.235,0.202-7.88C487.538,243.292,491.803,242.301,494.147,246.188z"/>
			<path fill="#AD263D" d="M497.285,252.396l-0.073-0.205c-0.054,1.552-1.05,2.992-2.453,3.674c-1.762,0.755-2.906,0.938-5.085,0.99
				c-1.535,0.035-2.652-0.99-3.286-2.69c0.018,0.234,0.153,0.496,0.183,0.715c0.381,2.413,1.596,4.089,3.512,4.02
				c2.179-0.085,3.324-0.269,5.085-1.022C497.22,256.993,498.25,254.526,497.285,252.396z"/>
			<path fill="#FF6161" d="M495.902,250.59l6.015,10.509c-1.912,5.272-11.843,3.31-11.329,1.499l3.476-9.802L495.902,250.59z"/>
			<path fill="#311E69" d="M496.038,256.3c0,0,3.078-0.446,3.497-3.535c0.42-3.09,0.89-7.969-0.344-9.866
				c-1.146-1.67-3.801-5.227-7.553-5.079c-13.017,0.567-4.655,12.984-3.505,13.439C489.17,251.766,492.066,257.059,496.038,256.3z"
				/>
			<path fill="#E2E2E2" d="M518.567,264.015c0,0,18.07,8.271,27.737,22.981c0.087,0.191,0.295,0.387,0.38,0.58
				c9.476,15.022-9.682,28.747-36.611,19.383c-0.84-0.268-1.634-0.615-2.387-0.977C485.416,295.463,518.567,264.015,518.567,264.015
				z"/>
			<path fill="#2E88BF" d="M520.248,388.254c0,0,5.104,57.037,0.749,62.344c-4.356,5.187-18.702,3.191-20.175,0
				c-1.354-3.312-14.056-55.677-7.144-68.146C500.59,369.983,521.407,379.181,520.248,388.254z"/>
			<g>
				<path fill="#1E1240" d="M487.526,238.599c-0.098,2.318-0.137,7.006,1.554,7.979c1.851,1.041,8.104,1.215,10.839-1.271
					c0.3,2.238-0.054,5.303-0.384,7.457c-0.419,3.089-3.497,3.535-3.497,3.535c-3.972,0.759-6.868-4.534-7.904-5.041
					C487.087,250.848,480.76,241.452,487.526,238.599z"/>
			</g>
			<path fill="#FF6161" d="M488.145,251.938c0,0-0.591-2.489,0.798-1.886c1.268,0.603,1.155,3.736,0.543,4.084
				C488.994,254.487,488.334,253.15,488.145,251.938z"/>
			<path fill="#2E88BF" d="M479.975,371.774c-11.534,27.838-5.885,109.451-2.757,116.21c3.127,6.645,17.601,6.645,19.687,1.583
				c1.437-3.333,1.567-40.783,4.669-72.3c1.785-17.348,8.489-33.536,6.979-39.794C504.34,359.902,483.11,364.155,479.975,371.774z"
				/>
			<path fill="#311E69" d="M479.975,384.935l-3.772,0.549c-0.719,3.723-1.227,7.893-1.656,12.217
				c3.682,0.773,13.774,2.36,20.038-1.094C502.406,392.324,479.975,384.935,479.975,384.935z"/>
			<path fill="#E2E2E2" d="M462.555,384.131c17.954-12.199-0.481-109.705,12.087-117.501c18.285-11.298,39.585-7.262,47.608-0.246
				c5.718,4.885,8.455,30.595,11.857,58.297c3.086,25.48,5.476,51.223,4.141,68.019c-5.521,2.715-19.89,5.104-23.604,3.854
				c-2.969-0.92-7.955-11.809-7.955-11.809s-5.532,11.721-8.624,11.818C480.743,397.355,464.795,390.736,462.555,384.131z"/>
			<path fill="#E04866" d="M446.792,272.829c0,0,1.091-8.347-0.197-7.779c-1.228,0.568-2.001,3.107-3.185,2.714
				s-1.977-3.918-3.165-3.695c-0.647,0.14-2.163,4.526-0.288,8.326C441.861,276.134,446.792,272.829,446.792,272.829z"/>
			<path fill="#311E69" d="M538.26,308.143c0.229-1.26-0.026-2.81-0.661-4.692c-4.192-10.427-13.977-23.122-13.977-23.122
				c-3.345,5.363,0.536,21.556,3.083,29.704C531.087,310.056,535.01,309.405,538.26,308.143z"/>
			<path fill="#E2E2E2" d="M466.067,300.324c0,0-13.607-28.712-20.466-28.372c-6.858,0.34-9.247,5.038-7.826,15.339
				c1.42,10.309,13.07,38.391,20.949,41.242C466.725,331.324,466.067,300.324,466.067,300.324z"/>
			<path fill="#311E69" d="M466.067,300.324c0,0-4-8.556-8.876-16.235c-2.58,6.633-7.946,23.203,2.084,31
				c2.972,2.385,4.943,1.629,6.285-0.81C466.161,307.272,466.067,300.324,466.067,300.324z"/>
			<g>
				<path fill="#C4C4C4" d="M534.107,324.681c-3.402-27.702-6.14-53.412-11.857-58.297c-3.909-3.38-10.773-6.052-19.087-6.654
					c3.677,6.215,11.974,21.815,12.416,32.953c0.65,14.217-4.245,19.9-1.117,32.727c3.129,12.827,8.418,40.295,8.363,48.198
					c-0.037,4.562-3.373,14.278-5.666,23.303c5.688,0.107,16.539-1.915,21.089-4.209
					C539.583,375.904,537.193,350.161,534.107,324.681z"/>
			</g>
			<path fill="#E2E2E2" d="M473.556,267.58c0,0-9.381,6.419-18.557,33.333c-7.688,22.206,3.698,29.938,9.916,29.444
				c14.805-1.05,25.258-37.56,23.064-47.655C485.901,272.579,473.556,267.58,473.556,267.58z"/>
			<g>
				<path fill="#C4C4C4" d="M475.08,311.341c-4.121,1.773-8.726,7.699-13.047,8.439c-4.324,0.74-7.736-3.725-10.864-7.592
					c-3.127-3.868-5.348-9.98-8.055-14.354c-1.019-1.644-2.427-2.983-3.792-3.979c3.722,12.516,12.868,32.335,19.402,34.677
					c2.173,1.401,4.455,1.976,6.19,1.824c8.457-0.606,15.454-12.595,19.48-24.776C480.9,307.99,477.056,310.464,475.08,311.341z"/>
			</g>
		</g>
		<g>
			<path fill="#1E1240" d="M339.048,630.425c1.749-2.519,2.26-5.457,2.46-7.804l8.652-0.025c0,0-0.581,3.023,0.918,5.352
				c0.625,0.971,14.202,7.522,14.387,8.964c0.267,2.322-23.696,2.342-27.658,0.081C335.704,635.825,337.139,633.356,339.048,630.425
				z"/>
			<path fill="#1E1240" d="M292.097,630.425c1.748-2.519,2.259-5.457,2.46-7.804l8.653-0.025c0,0-0.578,3.023,0.917,5.352
				c0.625,0.971,14.202,7.522,14.387,8.964c0.267,2.322-23.696,2.342-27.658,0.081C288.751,635.825,290.19,633.356,292.097,630.425z
				"/>
			<path fill="#1E1240" d="M339.77,361.434c0,0,0.569-2.066,5.037-0.711c6.523,1.974,6.522,14.786,5.498,19.822
				c-1.028,5.035-4.516,42.531-14.444,44.931c-9.928,2.52-21.795-2.185-18.311-22.357c3.484-20.173,2.091-27.663,6.792-28.824
				C329.03,373.132,339.77,361.434,339.77,361.434z"/>
			<path fill="#C4C4C4" d="M349.868,385.577c8.839-1.486,31.254,2.665,34.549-0.023c4.503-3.681,9.779-31.528,10.137-37.531
				c0.359-6.002,4.109-3.471,7.189,6.501c3.08,10.032,1.504,31.403-4.895,41.674c-6.399,10.379-44.721,10.515-44.721,10.515
				S342.138,386.811,349.868,385.577z"/>
			<path fill="#2E88BF" d="M352.127,625.686c-1.199,2.669-11.785,2.308-11.785,2.308c-0.789-3.628-3.449-57.636,4.89-78.324
				c3.16-7.872-4.48-34.346-8.17-51.85c14.007-3.541,24.363-7.291,30.834-10.975C376.644,522.484,375.831,573.758,352.127,625.686z"
				/>
			<g>
				<path fill="#2E88BF" d="M357.518,528.764c-0.237,9.098-1.32,10.785,0.786,16.521c2.106,5.615-6.142,24.274-6.464,31.55
					c-0.352,7.157-4.493,33.363-7.995,42.251c-0.908,2.264-2.275,4.259-3.834,6.083c-0.936-12.141-2.191-57.085,5.222-75.499
					c3.16-7.872-4.48-34.346-8.17-51.85c4.668-1.18,8.931-2.37,12.79-3.569c0.877,0.988,1.688,2.305,2.393,3.615
					C358.073,509.647,357.754,519.77,357.518,528.764z"/>
			</g>
			<path fill="#2E88BF" d="M302.725,625.608c-1.669,2.382-8.585,0-8.585,0c-0.169-3.8,6.296-57.347,17.983-76.382
				c4.468-7.304,1.364-34.648,0.661-52.529c14.389-1.156,25.25-3.063,32.276-5.594C347.653,527.769,334.771,578.387,302.725,625.608
				z"/>
			<path fill="#311E69" d="M373.013,531.373c-3.779,1.976-8.041,3.45-11.624,2.624l11.289-14.729
				C372.897,523.199,373.017,527.205,373.013,531.373z"/>
			<g>
				<path fill="#2E88BF" d="M327.734,530.669c-1.762,8.867-3.098,10.416-1.974,16.339c1.124,6.034-10.144,22.959-11.692,30.006
					s-10.081,32.248-15.003,40.421c-1.229,2.02-2.927,3.835-4.774,5.285c1.117-12.165,7.408-56.605,17.833-73.493
					c4.468-7.304,1.364-34.648,0.661-52.529c4.806-0.385,9.226-0.829,13.194-1.439c0.737,1.314,1.335,2.596,1.756,4.092
					C331.478,511.931,329.496,521.922,327.734,530.669z"/>
			</g>
			<path fill="#311E69" d="M342.173,532.622c-0.47,2.686-1.043,5.391-1.658,8.113c-5.013,0.015-14.521-0.89-21.395-7.732
				L342.173,532.622z"/>
			<path fill="#E2E2E2" d="M304.669,523.654c7.43-41.013,20.865-87.672,21.242-89.425c2.177-10.858-11.69-23.563-0.6-36.919
				c4.749-5.797,11.054-11.735,24.558-11.733c2.586,0.001,3.918,2.124,6.282,4.821c1.412,1.719,5.825,3.44,6.97,4.706
				c5.691,6.581,19.933,67.257,19.138,121.148c-0.958,10.476-23.921,19.831-23.921,19.831l-0.45-18.811
				c0,0-9.389,20.329-11.828,20.366C329.261,538.021,313.002,532.627,304.669,523.654z"/>
			<path fill="#FF6161" d="M336.646,379.144l0.09,11.506c0.065,1.911,4.817,6.645,7.747,4.219c0.881-0.74-0.362-3.363-1.204-5.311
				l-2.496-9.804L336.646,379.144z"/>
			<path fill="#311E69" d="M342.282,385.595c-4.194-0.999-5.026-4.609-5.026-4.609l3.892,0.159L342.282,385.595z"/>
			<g>
				<path fill="#FF6161" d="M336.664,372.199l-0.588,4.447c-0.475,3.512,1.822,6.937,5.326,7.453
					c3.257,0.487,6.341-1.427,6.726-5.492c0.305-3.651-2.312-6.671-3.281-8.329C342.661,366.59,337.692,367.146,336.664,372.199z"/>
				<path fill="#FF6161" d="M336.878,376.454c-0.165-0.371-0.231-0.755-0.33-1.142c-0.107-0.749-0.486-1.782-1.47-1.03
					c-1.476,1.044-0.521,4.924,1.374,4.895C337.833,379.156,337.263,377.386,336.878,376.454z"/>
				<path fill="#FF6161" d="M346.151,374.886c0.04-0.39,0.031-0.781,0-1.173c-0.1-0.755,0.005-1.891,1.127-1.406
					c1.681,0.627,1.84,4.583,0.026,5.088C345.974,377.701,346.015,375.866,346.151,374.886z"/>
				<path fill="#FFFFFF" d="M341.097,378.29c0,0,1.805,0.133,4.19-0.634c0,0-0.255,1.897-1.154,2.593
					C343.289,380.995,341.996,380.141,341.097,378.29z"/>
				<g>
					<path fill="#AD263D" d="M341.769,382.658c1.337,0.008,3.677-0.554,4.634-1.367c0.822-0.748,1.564-2.495,1.731-2.883
						c-0.003,0.047-0.002,0.152-0.006,0.199c-0.385,4.065-3.469,5.979-6.726,5.492c-2.155-0.349-3.825-1.743-4.727-3.593
						C338.5,382.131,340.584,382.652,341.769,382.658z"/>
				</g>
			</g>
			<path fill="#311E69" d="M341.709,369.26c0,0-1.974,7.455-9.893,9.148c-7.86,1.692-12.348,19.064-14.833,30.512
				c0,0-3.898-19.831,3.408-33.446c2.886-5.404,9.063-11.091,11.599-13.416c2.536-2.323,8.13-2.592,9.718-0.193
				C343.296,364.265,341.709,369.26,341.709,369.26z"/>
			<g>
				<path fill="#C4C4C4" d="M325.911,434.229c2.177-10.858-11.69-23.563-0.6-36.919c2.754-3.392,6.045-6.704,10.923-9.003
					c-2.282,3.94-4.624,10.044-3.722,17.164c1.591,12.88,10.382,23.048,7.258,36.269c-3.125,13.22-5.837,19.775-8.209,35.604
					c-2.427,15.916-5.11,57.499-5.11,57.499c-0.062,0.134-0.093,0.378-0.122,0.509c-8.973-2.339-16.729-6.334-21.66-11.697
					C312.099,482.642,325.534,435.982,325.911,434.229z"/>
			</g>
			<path fill="#311E69" d="M373.896,431.607c-4.132,2.295-13.947,5.79-25.308-3.243l23.356-5.88
				C372.58,425.345,373.271,428.424,373.896,431.607z"/>
			<g>
				<path fill="#894242" d="M382.462,324.005c4.058-3.826,7.979-9.554,7.979-17.613l11.904-0.109l11.904,0.109
					c0,8.06,3.921,13.787,7.979,17.613c5.564,5.15,8.703,12.373,8.703,19.957v66.147c0,5.852-12.809,10.577-28.585,10.577
					c-15.776,0-28.546-4.726-28.546-10.577v-66.147C373.799,336.377,376.958,329.155,382.462,324.005z"/>
				<g>
					<path fill="#702828" d="M382.462,324.005c4.058-3.826,7.979-9.554,7.979-17.613l11.904-0.109l0.228,0.002
						c-0.189,3.142-0.498,6.081-1.17,8.249c-2.349,8.201-8.279,12.009-10.798,21.074c-2.519,9.125,6.268,4.761,3.749,13.548
						s-3.897,11.137-4.245,26.028c-0.288,15.002,9.525,28.779,6.354,41.086c-0.393,1.413-0.755,2.848-1.074,4.077
						c-12.386-1.158-21.59-5.356-21.59-10.237v-66.147C373.799,336.377,376.958,329.155,382.462,324.005z"/>
				</g>
				<path fill="#1E1240" d="M414.66,310.828c-4.913,1.756-14.854,4.815-26.517,5.555c1.374-2.836,2.297-6.143,2.297-9.991
					l6.838-0.063l17.131,2.688C414.46,309.631,414.58,310.236,414.66,310.828z"/>
				<path fill="#DDDDDD" d="M382.779,281.202l39.174-0.042l0.249,26.339h-0.01c0,1.823-8.909,3.34-19.853,3.34
					s-19.853-1.518-19.853-3.34L382.779,281.202z"/>
				<g>
					<path fill="#C9C1C1" d="M382.487,307.5l0.292-26.297l19.917-0.021c-0.151,1.945-0.238,4.086-0.357,6.238
						c-0.26,7.22,2.333,6.882,0,12.427c-1.768,4.157-2.304,8.805-2.356,10.978C390.111,310.626,382.487,309.228,382.487,307.5z"/>
				</g>
				<path fill="#FFFFFF" d="M382.779,281.16c0,1.822,8.774,3.34,19.56,3.34c10.846,0,19.614-1.519,19.614-3.34
					c0-1.882-8.768-3.393-19.614-3.393C391.554,277.768,382.779,279.278,382.779,281.16z"/>
				<path fill="#DDDDDD" d="M425.137,357.801c0,0-19.659,3.744-43.602,0v29.746c0,0,21.437,6.599,43.602,0V357.801z"/>
				<path fill="#D3C5C5" d="M381.535,387.547v-29.746c3.47,0.555,6.82,0.942,10.074,1.184c-0.8,3.72-1.318,8.142-1.501,16.199
					c-0.075,4.981,0.925,9.784,2.233,14.453C385.75,388.796,381.535,387.547,381.535,387.547z"/>
				<path fill="#AD6868" d="M418.81,323.269c0,0,8.007,6.605,8.819,12.258c0.811,5.653,2.351,16.23,1.622,19.673
					c-0.669,3.384-7.193-16.735-13.515-22.165C409.354,327.604,413.945,318.401,418.81,323.269z"/>
				<path fill="#AD6868" d="M415.958,337.983c0,0,3.382,3.784,5.068,8.934c1.343,4.207,2.565,7.778-1.686,7.778
					c-4.193,0-7.995-1.491-6.723-6.099C413.831,343.977,415.958,337.983,415.958,337.983z"/>
				<path fill="#AD6868" d="M428.291,395.007l0.316,12.827c0.022,1.468-0.508,2.789-1.48,3.873
					c-0.642,0.738-1.592,1.535-2.854,2.291c-2.689,1.54-5.841-1.036-4.959-3.91c1.305-4.129,3.027-9.706,4.591-15.567
					C424.549,391.937,428.251,392.362,428.291,395.007z"/>
			</g>
			<g>
				<path fill="#E2E2E2" d="M331.649,398.593c9.739,2.886,24.915,15.108,29.561,13.961c6.376-1.561,20.877-25.337,24.133-31.244
					c3.195-5.966,10.11-3.639,8.408,7.997c-1.703,11.632-13.587,32.649-25.053,40.085c-7.729,5.046-25.619-2.425-37.059-9.026
					c-9.017-5.173-12.112-12.936-8.188-19.882C324.851,398.054,328.907,397.809,331.649,398.593z"/>
				<g>
					<path fill="#C4C4C4" d="M323.451,400.483c0.794-1.333,2.481-2.032,4.257-2.264c-0.366,2.263-0.791,5.845-0.391,8.192
						c0.61,3.695,9.797,7.271,14.748,9.16c4.896,1.891,12.725,9.797,18.183,7.779c5.458-2.137,11.926-6.937,20.27-13.843
						c8.344-6.786,7.528-8.733,8.954-12.687c0.953-2.629,1.594-4.514,4.021-5.856c-2.466,11.822-13.796,31.335-24.797,38.426
						c-7.729,5.046-25.619-2.425-37.059-9.026C322.622,415.192,319.526,407.43,323.451,400.483z"/>
				</g>
			</g>
			<path fill="#FF6161" d="M388.554,380.425c0.12-0.796,1.331-2.755,2.29-3.718c1.803-1.809,0.998-2.96,1.116-3.942
				c0.059-0.983,1.632-0.445,1.845,1.726c0.156,1.388-0.847,2.896,0.34,2.187c1.187-0.65,4.917-8.226,5.302-4.53
				c0.094,0.48-0.029,2.626-0.029,2.626s-0.016,1.876-0.386,3.004c-0.597,1.819-2.895,4.375-5.858,5.933
				C391.698,384.479,388.1,384.89,388.554,380.425z"/>
		</g>
		<g>
			<path fill="#311E69" d="M881.186,318.6c0,0,1.655-4.305,5.111-2.89c3.441,1.454,1.783,8.563-2.175,8.172
				C880.164,323.491,881.186,318.6,881.186,318.6z"/>
			<path fill="#C4C4C4" d="M845.084,374.304c0,0-8.127-16.687-17.909-14.225c-9.795,2.4,2.047,35.998,10.264,39.876
				C845.689,403.834,845.084,374.304,845.084,374.304z"/>
			<path fill="#C4C4C4" d="M863.729,340.212c-7.689,2.315-14.495,12.248-23.251,37.2c-8.735,24.952,9.77,15.314,17.993,6.589
				C866.729,375.155,874.29,337.054,863.729,340.212z"/>
			<path fill="#311E69" d="M868.787,323.641c0,0-2.442-5.778,1.821-9.691c4.265-3.913,10.869-0.737,11.766,1.956
				c0.857,2.694,0.857,3.822,0.857,3.822s3.283,4.604,1.89,8.805c-1.436,4.153-8.431,6.815-11.954,4.239
				C869.645,330.142,868.787,323.641,868.787,323.641z"/>
			<g>
				<path fill="#AD263D" d="M830.83,357.989c0,0-1.072-1.399-3.275-1.127c-2.262,0.332-3.015-0.223-2.941,0.93
					c0.159,1.153-0.383,1.77,1.795,2.125C828.474,360.271,831.297,359.458,830.83,357.989z"/>
				<path fill="#FF6161" d="M831.755,360.969c0,0,1.063-2.837,0.23-4.388c-0.811-1.55-6.675-2.51-7.484-1.117
					s-0.718,2.308,0.412,2.436c1.129,0.068,2.713-0.948,3.792-0.148c0.961,0.799-0.405,1.464-2.224,0.852
					c-1.736-0.603-2.294,1.098-0.857,2.123C826.949,361.812,831.166,364.521,831.755,360.969z"/>
				<polygon fill="#2A214F" points="825.096,358.106 835.081,351.795 835.743,352.859 824.96,359.469 				"/>
			</g>
			<g>
				<path fill="#FF6161" d="M847.854,576.318c0,0,0.839,4.216,0.491,4.912c-0.092,0.303-3.224,1.251-5.687,2.602
					c-1.094,0.914-2.195,2.132-1.009,2.519c2.015,0.696,14.037,0.701,15.177-1.273c0.382-0.7,0.832-1.185,1.399-1.588
					c-1.648-2.354-2.53-4.995-2.693-7.171H847.854z"/>
				<path fill="#1E1240" d="M856.827,585.077c-1.14,1.975-13.162,1.97-15.177,1.273c-1.187-0.387-0.085-1.604,1.009-2.519
					c-3.73,1.809-8.337,4.341-8.446,5.577c-0.303,2.068,21.524,2.016,25.196,0c1.864-1.1,0.553-3.409-1.183-5.92
					C857.659,583.893,857.209,584.377,856.827,585.077z"/>
			</g>
			<g>
				<path fill="#FF6161" d="M877.876,576.318c0,0,0.839,4.216,0.495,4.912c-0.096,0.303-3.228,1.251-5.686,2.602
					c-1.095,0.914-2.2,2.132-1.014,2.519c2.019,0.696,14.037,0.701,15.177-1.273c0.381-0.7,0.832-1.185,1.407-1.588
					c-1.615-2.354-2.538-4.995-2.688-7.171H877.876z"/>
				<path fill="#1E1240" d="M886.849,585.077c-1.14,1.975-13.158,1.97-15.177,1.273c-1.187-0.387-0.081-1.604,1.014-2.519
					c-3.735,1.809-8.33,4.341-8.451,5.577c-0.303,2.068,21.523,2.016,25.204,0c1.896-1.1,0.545-3.409-1.183-5.92
					C887.681,583.893,887.229,584.377,886.849,585.077z"/>
			</g>
			<path fill="#2E88BF" d="M895.859,426.064c-0.486-22.559-15.102-43.208-16.132-48.552c-2.283-11.224,16.071-30.059,6.688-35.148
				c-10.231-5.584-19.01-6.951-29.102,2.563c-5.862,5.569-1.548,12.231-1.993,18.345c-1.524,19.988-14.887,30.948-21.018,50.116
				c-32.091,101.525,14.063,166.552,14.063,166.552h7.756c2.729,0,4.861-2.517,4.449-5.223c-1.635-10.544-5.195-34.723-5.813-46.941
				c-1.414-25.271-2.602-26.117-4.575-48.989c-0.782-9,2.701-42.56,11.929-44.028c0,0-12.425,81.501,13.294,145.182l16.946-1.437
				c0,0,5.392-53.185,2.648-69.378c-1.441-8.19-3.943-13.719-5.836-16.99c-1.445-2.372-1.89-5.158-1.348-7.877
				C890.043,472.193,895.868,439.914,895.859,426.064z"/>
			<g>
				<path fill="#2E88BF" d="M845.092,470.598c-7.364,3.577-11.495,24.545-8.104,35.852c3.411,11.307,11.318,15.458,8.104,25.738
					c-3.308,10.4,2.065,35.683,4.597,40.909c0.811,1.786,1.655,4.228,2.435,6.843h4c2.729,0,4.861-2.517,4.449-5.223
					c-1.635-10.544-5.195-34.723-5.813-46.941c-1.414-25.271-2.602-26.117-4.575-48.989c-0.185-1.934-0.138-5.006,0.066-8.589
					C848.705,469.715,847.011,469.707,845.092,470.598z"/>
			</g>
			<g>
				<path fill="#2E88BF" d="M895.859,426.064c-0.096-5.918-1.227-11.702-2.799-17.13c-5.898,18.285-19.106,60.125-19.571,72.229
					c-0.649,15.625-2.297,20.968,4.86,33.467c7.275,12.499,7.268,11.307,4.601,26.195c-2.22,12.39-3.543,28.374-1.612,38.543
					l11.016-0.866c0,0,5.392-53.185,2.648-69.378c-1.43-8.152-3.919-13.667-5.811-16.831c-1.422-2.507-1.918-5.302-1.369-8.04
					C890.045,472.187,895.868,439.914,895.859,426.064z"/>
			</g>
			<path fill="#311E69" d="M823.135,475.936c-0.205,5.175-0.21,10.234-0.096,15.174c6.461,1.761,16.906,4.064,20.541,0.56
				C847.531,487.829,831.763,479.879,823.135,475.936z"/>
			<path fill="#311E69" d="M887.98,483.428l-18.881,7.307c0,0,10.218,4.682,20.876,2.901c-0.304-0.476-0.508-0.925-0.784-1.342
				c-1.422-2.507-1.918-5.302-1.369-8.04C887.876,483.982,887.943,483.748,887.98,483.428z"/>
			<path fill="#E2E2E2" d="M830.91,415.176c9.389-25.588,20.566-30.312,22.09-50.239c0.457-6.174-1.548-14.44,4.314-20.009
				c10.092-9.514,19.123-8.637,29.102-2.563c16.029,9.815-8.972,23.924-6.688,35.148c1.03,5.344,19.504,25.993,19.998,48.552
				c0.007,12.143-2.402,26.938-3.866,45.315c-0.367,4.661-0.611,9.599-0.812,14.711c-0.918,0.345-10.658,4.641-25.53,6.25
				c-1.316,0.097-4.445,0.143-5.71,0.129c-4.31-0.043-8.094-19.93-10.251-21.409c-2.248-1.394,1.717,22.024-4.354,21.401
				c-9.151-0.821-19.864-4.1-27.761-9.508C821.448,478.479,823.504,435.365,830.91,415.176z"/>
			<g>
				<path fill="#C4C4C4" d="M879.728,377.513c-2.283-11.224,22.718-25.333,6.688-35.148c-4.174-2.531-8.123-4.131-12.062-4.494
					c1.36,3.187,3.337,8.852,2.725,13.924c-0.908,7.663-9.3,49.698-10.82,53.979c-1.515,4.28,11.353,16.41,12.079,31.431
					c0.62,11.811-8.781,36.992-8.82,55.136c13.438-1.078,24.66-5.915,25.53-6.25c0.2-5.112,0.444-10.05,0.812-14.711
					c1.464-18.377,3.873-33.173,3.866-45.315C899.231,403.506,880.758,382.856,879.728,377.513z"/>
			</g>
			<path fill="#FFFFFF" d="M874.203,338.706c0,0-11.215,0-16.899,13.996l3.322,8.516l-3.322-2.817l2.134,31.052l18.321-29.983
				l-6.55,1.84c0,0,7.397-4.304,9.129-8.758C882.165,348.156,879.795,339.147,874.203,338.706z"/>
			<path fill="#4CB4D4" d="M875.27,340.583c0,0-5.146-1.186-8.266,2.935c-3.711,4.924-3.108,25.004-3.108,25.004
				S886.396,339.8,875.27,340.583z"/>
			<path fill="#FF6161" d="M877.566,330.649l0.192,11.475c0.018,1.849-3.434,4.719-6.455,2.344c-0.844-0.725-0.881-1.313-0.07-3.269
				l2.26-9.877L877.566,330.649z"/>
			<path fill="#311E69" d="M872.104,337.173c2.51-0.704,4.975-4.401,4.975-4.401h-3.912L872.104,337.173z"/>
			<path fill="#311E69" d="M884.579,386.42c1.804,2.767,3.799,6.107,5.771,9.694c-2.771,3.206-8.997,9.3-16.932,9.653
				C862.988,406.197,882.964,387.925,884.579,386.42z"/>
			<g>
				<path fill="#1E1240" d="M876.355,323.509c-4.702-0.587-6.967-3.871-7.887-6.053c-0.978,3.14,0.318,6.185,0.318,6.185
					s0.857,6.501,4.38,9.131c3.523,2.576,10.519-0.086,11.954-4.239c1.013-3.095-0.524-6.42-1.377-7.963
					C882.438,322.45,880.16,324.015,876.355,323.509z"/>
			</g>
			<path fill="#FF6161" d="M877.564,323.285l0.717,4.424c0.536,3.444-1.653,6.913-5.135,7.542c-3.219,0.553-6.321-1.267-6.855-5.335
				c-0.412-3.576,2.2-6.689,3.082-8.358C871.538,317.845,876.4,318.262,877.564,323.285z"/>
			<path fill="#FF6161" d="M877.963,328.019c0.284-0.275,0.437-0.632,0.652-0.997c0.321-0.645,0.898-1.585,1.667-0.617
				c1.128,1.392-0.788,4.885-2.537,4.346C876.374,330.364,877.421,328.799,877.963,328.019z"/>
			<path fill="#FFFFFF" d="M812.605,343.307l13.415,6.328c1.283,0.122,2.334,1.47,2.229,3.034l-1.745,25.788
				c-0.071,1.564-1.238,2.812-2.563,2.695l-13.429-6.391c-1.284-0.061-2.334-1.409-2.241-2.973l1.757-25.848
				C810.1,344.376,811.267,343.187,812.605,343.307z"/>
			<g>
				<path fill="#AD263D" d="M872.756,333.818c-1.377,0.027-3.719-0.454-4.643-1.252c-0.839-0.732-1.604-2.462-1.832-2.848
					c0.004,0.047,0.004,0.152,0.01,0.198c0.534,4.068,3.637,5.888,6.855,5.335c2.084-0.345,3.804-1.837,4.654-3.739
					C875.961,333.221,873.938,333.793,872.756,333.818z"/>
			</g>
			<path fill="#FFFFFF" d="M871.73,328.392c0,0-2.855-0.053-3.901-1.175c0,0-0.547,1.941,1.073,2.501
				C870.519,330.279,871.73,328.392,871.73,328.392z"/>
			<path fill="#E2E2E2" d="M863.814,385.959c4.995-3.297,5.578-30.543,16.162-40.138c8.447-7.716,14.925,3.982,15.046,11.556
				c0.314,15.811-5.769,39.989-20.102,47.625c-14.32,7.516-24.407,0.924-33.253-10.36c-5.405-6.933-19.43-18.341-13.948-25.92
				C832.964,361.618,860.188,388.319,863.814,385.959z"/>
			<path fill="#C4C4C4" d="M874.921,405.002c-9.133,4.779-16.55,3.894-23.06-0.354c4.301,0.726,9.165-0.071,14.441-2.974
				c15.717-8.232,22.26-34.593,21.973-51.881c-0.037-1.953-0.492-4.14-1.215-6.268c4.743,1.364,7.895,8.597,7.962,13.852
				C895.337,373.188,889.254,397.366,874.921,405.002z"/>
			<path fill="#FF6161" d="M820.63,363.627c0.664-0.412,1.964-0.059,3.439,0.528c2.499,1.022,4.79,2.614,6.719,4.62
				c1.134,3.067-0.114,6.792-3.647,5.425C824.556,373.211,819.072,364.662,820.63,363.627z"/>
		</g>
		<g>
			<path fill="#FF6161" d="M141.253,594.952c0,0,0.856,4.238,0.537,4.935c-0.137,0.272-3.269,1.25-5.745,2.489
				c-1.105,1.025-2.178,2.241-0.988,2.628c2.053,0.696,14.03,0.701,15.165-1.272c0.381-0.7,0.847-1.188,1.379-1.616
				c-0.212-0.314-0.289-2.999-0.228-7.397c-3.942-0.283-7.442-0.613-10.374-0.932C141.151,594.547,141.253,594.952,141.253,594.952z
				"/>
			<path fill="#FF6161" d="M227.907,602.376c-4.629-2.41-5.419-7.424-5.419-7.424s-0.304-1.576-0.796-4.365
				c-3.433,0.847-6.957,1.598-10.538,2.261c0.482,0.742,1.013,1.421,1.523,2.104c0.88,2.925,1.255,4.774-0.332,7.163
				c0.509,0.428,0.999,0.916,1.38,1.616c1.134,1.974,13.096,1.969,15.167,1.272C230.08,604.617,228.98,603.401,227.907,602.376z"/>
			<path fill="#006F9C" d="M196.278,444.836c-0.682-16.671-6.528-26.101-12.205-33.038c-6.642,0.261-14.444,0.204-22.26-0.579
				c-9.213-1.001-18.427-2.925-25.796-6.504c-2.352,7.339-5.039,16.278-8.276,27.412c-11.878,41.262,10.62,149.42,13.259,161.659
				c2.403,0.283,3.611,4.047,15.231,5.36c4.932,0.52,9.254-3.426,9.12-8.369c-1.038-36.129-8.132-123.602-4.24-147.034
				c0.002-0.011,0.016-0.02,0.024-0.027c0,0,2.132,93.973,38.993,150.678c1.618,2.437,4.583,3.665,7.506,3.207
				c8.5-1.465,11.153-6.257,14.058-7.014C217.312,566.728,196.616,452.949,196.278,444.836z"/>
			<path fill="#1E1240" d="M170.112,339.704c0,0,8.333,2.737,11.714,7.889c0.584,0.85,1.032,2.003,1.363,3.319
				c2.332,9.041-10.311,14.415-14.824,6.21c-0.721-1.331-1.035-2.808-0.795-4.367C169.016,343.891,170.112,339.704,170.112,339.704z
				"/>
			<path fill="#006F9C" d="M211.401,596.67c5.624-1.966,7.853-5.415,10.292-6.083c-4.381-23.859-25.076-137.638-25.414-145.751
				c-0.682-16.671-6.528-26.101-12.205-33.038c-4.792,0.221-10.161,0.218-15.712-0.112c3.392,5.513,8.762,12.181,11.363,19.563
				c6.013,17.059-0.208,10.468-6.028,32.312c-5.805,21.844,11.004,33.374,11.004,33.374l1.974,11.863c0,0,3.876,24.812,10.27,33.087
				c6.361,8.274,1.741,11.63-1.354,19.771c-3.101,8.114,2.71,7.499,10.423,13.451C211.965,579.729,211.794,591.418,211.401,596.67z"
				/>
			<path fill="#311E69" d="M160.189,339.386c-1.795,7.055,8.745,12.386,11.13,12.926s6.951-3.59,8.192-10.463
				c1.271-6.839-3.156-11.028-8.091-9.591C171.421,332.258,163.61,326.078,160.189,339.386z"/>
			<path fill="#E2E2E2" d="M162.935,356.862c0,0-40.281,2.499-54.448,32.206c-3.794,7.88-2.103,13.302,0.921,14.475
				c5.752,2.259,18.517-6.211,23.568-9.74C148.07,383.253,161.288,362.182,162.935,356.862z"/>
			<path fill="#006F9C" d="M156.668,468.733c-5-0.133-15.212,1.163-15.998,13.182c-0.786,12.018,5.203,21.322,4.819,31.147
				c-0.385,9.827-7.737,5.566-3.862,18.742c3.862,13.182,10.428,10.701,7.138,22.619c-3.275,12.019-6.169,9.945-2.504,21.068
				c2.374,7.276,0.72,15.246,0.902,21.567c2.042,0.84,4.854,1.632,9.068,2.087c4.932,0.52,9.254-3.426,9.12-8.369
				c-0.77-27.043-4.939-82.688-5.373-118.771C159.182,470.15,158.099,468.89,156.668,468.733z"/>
			<path fill="#311E69" d="M124.318,467.157c0.053,5.895,0.303,12.066,0.719,18.409c5.506,3.691,14.075,7.743,21.543,4.339
				C156.798,485.073,132.483,471.448,124.318,467.157z"/>
			<path fill="#006F9C" d="M213.726,603.731c1.134,1.974,13.096,1.969,15.167,1.272c1.188-0.387,0.09-1.603-0.985-2.628
				c3.703,1.913,8.251,4.432,8.421,5.686c0.244,2.06-21.563,2.014-25.162,0c-1.911-1.1-0.574-3.407,1.18-5.946
				C212.855,602.543,213.344,603.031,213.726,603.731z"/>
			<path fill="#311E69" d="M169.092,492.726c0,0,12.14,11.739,36.765,9.889c-1.481-8.349-2.896-16.484-4.184-23.865L169.092,492.726
				z"/>
			<path fill="#E2E2E2" d="M203.799,490.903c-0.582-2.826-3.003-31.146-8.438-54.906c-7.03-30.579-17.271-58.394-16.095-62.964
				c1.511-5.726,6.815-9.466-2.63-13.833c-7.553-3.414-15.26-5.536-21.925,4.669c-9.767,15.07-36.952,63.072-30.402,112.873
				c0.428,3.263,9.666,12.869,26.85,15.253c5.508,0.775,5.934-17.252,7.234-17.058c1.831,0.397,3.77,17.427,5.551,17.968
				C184.93,500.136,204.938,496.553,203.799,490.903z"/>
			<g>
				<path fill="#C4C4C4" d="M203.799,490.903c-0.582-2.826-3.003-31.146-8.438-54.906c-7.03-30.579-17.271-58.394-16.095-62.964
					c1.488-5.674-13.655,34.742-12.772,43.828c1.049,10.557,10.01,24.036,15.265,32.178c5.256,8.021,0.595,8.425-0.125,18.488
					c-0.451,6.816,1.227,20.313,3.066,29.408C196.305,497.383,204.545,494.606,203.799,490.903z"/>
			</g>
			<path fill="#006F9C" d="M150.222,603.731c-1.135,1.974-13.112,1.969-15.165,1.272c-1.19-0.387-0.117-1.603,0.988-2.628
				c-3.707,1.913-8.261,4.432-8.426,5.686c-0.272,2.06,21.539,2.014,25.163,0c1.91-1.1,0.573-3.407-1.181-5.946
				C151.069,602.543,150.604,603.031,150.222,603.731z"/>
			<path fill="#FF6161" d="M171.272,348.186l0.149,10.935c0.013,1.787-4.438,6.43-7.285,4.131c-0.835-0.642,0.278-3.136,1.064-4.974
				l2.145-9.442L171.272,348.186z"/>
			<path fill="#311E69" d="M166.055,354.439c2.349-0.738,4.706-4.256,4.706-4.256h-3.74L166.055,354.439z"/>
			<path fill="#FF6161" d="M171.271,341.173l0.652,4.168c0.522,3.325-1.61,6.63-4.929,7.218c-3.065,0.556-6.027-1.205-6.462-5.085
				c-0.398-3.407,2.028-6.417,2.925-7.974C165.458,335.965,170.158,336.369,171.271,341.173z"/>
			<path fill="#FF6161" d="M162.319,343.912c-0.038-0.376-0.036-0.754-0.018-1.133c0.04-0.73-0.035-1.767-1.141-1.338
				c-1.576,0.688-1.611,4.452,0.121,4.853C162.551,346.623,162.472,344.856,162.319,343.912z"/>
			<path fill="#FFFFFF" d="M167.197,347.063c0,0-1.727,0.157-4.033-0.549c0,0,0.313,1.77,1.151,2.483
				C165.174,349.708,166.363,348.806,167.197,347.063z"/>
			<path fill="#311E69" d="M140.922,379.172c-1.648,0.376-3.206,1.057-4.641,2.011c-3.176,2.115-8.449,6.727-3.568,11.521
				c6.673,6.621,15.838-10.331,14.403-12.07C145.96,379.321,144.06,378.449,140.922,379.172z"/>
			<path fill="#E2E2E2" d="M177.514,359.671c0,0-4.506,12.168-1.128,18.929c5.083,10.113,17.799,17.179,17.799,17.179
				s13.984,0.865,22.679,4.157c-0.057-0.315-0.164-0.631-0.233-0.951C208.86,375.734,177.514,359.671,177.514,359.671z"/>
			<g>
				<path fill="#AD263D" d="M166.62,351.193c-1.239,0.086-3.498-0.438-4.419-1.21c-0.812-0.65-1.538-2.327-1.677-2.699
					c0.004,0.104,0.004,0.147,0.009,0.191c0.435,3.88,3.396,5.641,6.462,5.085c2.051-0.372,3.655-1.757,4.451-3.54
					C169.719,350.615,167.761,351.169,166.62,351.193z"/>
			</g>
			<path fill="#311E69" d="M163.164,337.48c0,0,1.47,3.142,3.072,4.497c1.612,1.355,3.801,3.901,3.801,3.901
				s1.528-1.037,2.107-2.382c0.583-1.355,2.026-7.208-2.107-9.271C165.896,332.224,162.199,335.694,163.164,337.48z"/>
			<g>
				<path fill="#FFFFFF" d="M180.123,381.122l9.922,7.504c3.656,2.743,4.409,7.933,1.666,11.546
					c-2.744,3.73-7.993,4.485-11.664,1.741l-9.925-7.441L180.123,381.122z"/>
				<path fill="#FF6161" d="M160.198,386.914c-3.657-2.722-4.388-7.938-1.63-11.609c2.746-3.672,7.994-4.427,11.635-1.666
					l9.92,7.482l-10.001,13.35L160.198,386.914z"/>
				<g>
					<path fill="#E04866" d="M172.474,389.233c-1.189-1.621-5.279-3.731-7.487-5.673c-2.242-1.893-2.234-3.45-3.382-5.105
						c-0.694-0.992-0.879-3.394-0.924-5.112c-0.804,0.537-1.514,1.168-2.113,1.962c-2.758,3.671-2.026,8.887,1.63,11.609
						l9.924,7.558l3.156-4.224C172.953,389.876,172.658,389.531,172.474,389.233z"/>
				</g>
				<g>
					<path fill="#E0E0E0" d="M191.711,400.172c0.737-0.912,1.194-2.021,1.441-3.154c-1.18,1.005-2.588,1.952-3.408,2.274
						c-1.658,0.637-1.341,0.923-5.148-1.741c-3.788-2.842-11.318-7.303-11.318-7.303l0,0l-3.156,4.224l9.925,7.441
						C183.718,404.657,188.967,403.902,191.711,400.172z"/>
				</g>
				<path fill="#FFC7C7" d="M163.687,373.166c0,0,2.385-1.304,6.01,0.981c3.602,2.292,8.83,6.854,8.83,6.854
					S159.958,376.305,163.687,373.166z"/>
			</g>
			<path fill="#311E69" d="M192.595,424.688c-1.088-4.307-2.234-8.41-3.364-12.515l-20.709,1.408
				C168.521,413.581,179.662,425.406,192.595,424.688z"/>
			<g>
				<path fill="#FFFFFF" d="M160.527,378.855c0,4.588-3.718,8.329-8.327,8.329c-4.574,0-8.305-3.74-8.305-8.329
					c0-4.554,3.731-8.268,8.305-8.268C156.81,370.587,160.527,374.301,160.527,378.855z"/>
				<path fill="#FFE6E6" d="M160.527,380.635c0,4.612-3.718,8.386-8.327,8.386c-4.574,0-8.305-3.773-8.305-8.386
					c0-4.557,3.731-8.271,8.305-8.271C156.81,372.363,160.527,376.078,160.527,380.635z"/>
				<path fill="#FFC7C7" d="M143.896,380.635c0,0.274,0.016,0.489,0.045,0.705h16.553c0.023-0.216,0.034-0.431,0.034-0.705
					c0-0.22-0.011-0.437-0.034-0.651H143.94C143.911,380.198,143.896,380.415,143.896,380.635z"/>
			</g>
			<g>
				<path fill="#FFED9E" d="M175.798,383.51c0,3.391-2.789,6.281-6.257,6.281c-3.449,0-6.248-2.891-6.248-6.281
					c0-3.496,2.799-6.273,6.248-6.273C173.01,377.237,175.798,380.014,175.798,383.51z"/>
				<path fill="#FFD364" d="M175.798,384.835c0,3.47-2.789,6.247-6.257,6.247c-3.449,0-6.248-2.777-6.248-6.247
					s2.799-6.247,6.248-6.247C173.01,378.588,175.798,381.365,175.798,384.835z"/>
				<path fill="#FFAB66" d="M163.293,384.835c0,0.139,0.007,0.356,0.02,0.476h12.459c0.013-0.119,0.026-0.337,0.026-0.476
					c0-0.216-0.013-0.355-0.026-0.497h-12.459C163.3,384.479,163.293,384.619,163.293,384.835z"/>
			</g>
			<g>
				<path fill="#FF8A54" d="M162.922,391.186c0.047,5.419-6.828,9.932-15.352,9.982c-8.515,0.051-15.466-4.26-15.503-9.68
					c-0.064-5.42,6.827-9.813,15.334-9.916C155.932,381.509,162.886,385.871,162.922,391.186z"/>
				<g>
					<path fill="#FF5B45" d="M142.355,392.232c-5.111-0.454-8.401-1.209-10.229-1.814c-0.037,0.354-0.062,0.711-0.059,1.07
						c0.038,5.42,6.989,9.73,15.503,9.68c8.524-0.051,15.399-4.563,15.352-9.982c-0.005-0.233-0.027-0.575-0.066-0.918
						C157.828,391.184,148.449,392.75,142.355,392.232z"/>
				</g>
				<path fill="#F7B783" d="M133.505,388.745c0,0,1.916-3.901,7.568-5.304c5.651-1.35,8.473-1.111,10.69-0.721
					C153.947,383.057,148.243,389.475,133.505,388.745z"/>
				<path fill="#FF8A54" d="M135.234,395.82c0,0-1.779-1.514-0.615-1.909c1.164-0.396,3.98,3.331,9.574,3.872
					c9.002,1.036,15.534-3.594,16.909-4.769c1.376-1.175,0.959,1.666-1.533,3.472c-2.497,1.686-8.062,4.401-14.234,3.897
					C138.791,399.738,135.234,395.82,135.234,395.82z"/>
			</g>
			<path fill="#FF6161" d="M171.146,345.167c0.137-0.3,0.218-0.672,0.295-1.047c0.1-0.726,0.432-1.728,1.393-1.016
				c1.384,0.986,0.578,4.688-1.194,4.688C170.305,347.792,170.812,346.074,171.146,345.167z"/>
			<path fill="#311E69" d="M145.89,418.998c3.507-3.502-6.896-5.648-14.254-6.572c-0.924,2.82-1.823,5.809-2.644,8.729
				C133.774,421.919,142.218,422.635,145.89,418.998z"/>
			<g>
				<path fill="#F2F2F2" d="M172.27,387.219l16.22-1.084c5.979-0.388,11.207,4.202,11.598,10.141
					c0.391,6.058-4.195,11.226-10.154,11.616l-16.236,1.095L172.27,387.219z"/>
				<path fill="#4CB4D4" d="M157.483,410.081c-5.979,0.391-11.177-4.213-11.568-10.151c-0.392-6.059,4.165-11.226,10.152-11.616
					l16.203-1.095l1.427,21.768L157.483,410.081z"/>
				<g>
					<path fill="#2E88BF" d="M171.654,401.904c-2.576-0.67-8.499,0.735-12.33,0.735c-3.848,0-5.18-1.55-7.688-2.219
						c-1.559-0.387-3.808-2.669-5.302-4.297c-0.358,1.185-0.521,2.421-0.419,3.806c0.392,5.938,5.59,10.542,11.568,10.151
						l16.213-1.095l-0.451-6.905C172.617,402.029,172.055,401.971,171.654,401.904z"/>
				</g>
				<g>
					<path fill="#E0E0E0" d="M200.087,396.275c-0.116-1.577-0.563-2.962-1.274-4.356c-0.376,1.937-0.884,4.193-1.466,5.13
						c-1.148,2.08-0.538,2.151-6.627,2.63c-6.13,0.479-17.474,2.402-17.474,2.402l0,0l0.451,6.905l16.236-1.095
						C195.892,407.501,200.478,402.333,200.087,396.275z"/>
				</g>
				<path fill="#73E0F9" d="M149.186,393.388c0,0,1.257-3.373,6.782-4.187c5.543-0.813,14.659-0.742,14.659-0.742
					S148.151,399.679,149.186,393.388z"/>
				<path fill="#FFFFFF" d="M173.043,388.456c0,0,13.307-1.665,16.62-1.237c3.314,0.427,4.511,0.798,5.147,1.982
					c0.61,1.184-15.346,2.632-18.248,2.225C173.667,391.02,173.043,388.456,173.043,388.456z"/>
			</g>
			<path fill="#E2E2E2" d="M160.449,411.636c3.123,8.303,62.427,10.62,56.414-11.699c-10.657-10.093-22.041-5.465-22.041-5.465
				S157.293,403.141,160.449,411.636z"/>
			<path fill="#E2E2E2" d="M118.414,389.933c0,0,30.931,6.113,34.802,16.372c3.866,10.378-4.371,14.433-11.348,14.135
				c-6.962-0.179-33.27-11.783-35.316-20.503C104.483,391.096,114.541,389.097,118.414,389.933z"/>
			<g>
				<path fill="#C4C4C4" d="M216.863,399.937c-0.057-0.315-0.164-0.631-0.233-0.951c-3.931-11.753-13.911-21.692-22.781-28.6
					c4.202,5.933,10.587,15.179,12.357,18.635c2.702,5.199,5.993,8.755,3.087,12.698c-2.894,4.064-0.019-0.588-13.291,5.428
					c-13.275,6.136-23.369,3.877-26.461,3.81c-2.156-0.047-3.335-3.104-6.26-4.738c-2.313,1.693-3.504,3.56-2.832,5.418
					C163.572,419.938,222.876,422.256,216.863,399.937z"/>
			</g>
			<path fill="#FF6161" d="M163.839,406.969c-0.652-0.612-3.092-0.778-4.381-0.732c-2.437,0.088-3.858-0.707-4.622-1.419
				c-0.763-0.591-1.03,1.158,0.229,2.11c1.221,0.833,3.82,1.307,2.59,1.761c-1.212,0.575-6.279-0.086-6.492,2.935
				c-0.181,2.438,7.074,3.95,12.21,1.659C164.837,412.597,167.37,409.882,163.839,406.969z"/>
			<g>
				<path fill="#C4C4C4" d="M132.858,408.746c-5.099-3.32-18.308-1.987-18.696-7.161c-0.388-5.178-1.55-2.393-3.293-6.26
					c-1.182-2.656,1.654-10.782,3.596-15.692c-2.27,2.824-4.316,5.937-5.978,9.435c-1.441,2.908-2.086,5.567-2.181,7.797
					c-0.093,0.871-0.033,1.932,0.245,3.071c2.047,8.72,28.354,20.324,35.316,20.503c6.716,0.292,14.617-3.558,11.716-13.023
					c-0.284,0.553-0.596,1.153-0.84,1.33C151.77,409.776,137.946,412.187,132.858,408.746z"/>
			</g>
			<path fill="#FF6161" d="M150.471,413.208c0.504-0.705,2.821-1.508,4.068-1.794c2.416-0.438,3.597-1.568,4.182-2.393
				c0.586-0.824,1.262,0.848,0.269,1.986c-0.993,1.14-3.416,2.27-2.108,2.394c1.322,0.243,6.088-1.599,7.004,1.327
				c0.767,2.36-5.944,5.518-11.473,4.475C150.842,419.005,147.742,416.884,150.471,413.208z"/>
		</g>
		<g>
			<path fill="#311E69" d="M306.488,242.497c-1.211-2.532-1.302-5.123-1.181-7.249l-7.75-1.126c0,0,0.158,2.729-1.432,4.625
				c-0.723,0.809-2.479,1.264-4.878,1.906c-3.892,1.344-8.726,3.096-9.072,4.297c-0.542,2.001,20.799,5.051,24.652,3.543
				C308.814,247.716,307.842,245.313,306.488,242.497z"/>
			<path fill="#C4C4C4" d="M333.28,106.067c0,0-26.698-12.091-21.185-25.954c4.846-12.216,20.272,7.607,24.964,12.408
				C341.75,97.337,333.28,106.067,333.28,106.067z"/>
			<path fill="#3585B7" d="M351.94,119c0,0-33.478,18.169-43.807,30.961c-10.336,12.81-20.95,85.689-13.905,87.853
				c7.062,2.188,19.521,0.063,27.952-14.061c6.001-10.12,11.351-51.601,12.927-57.099c1.576-5.492,36.266-12.282,34.702-36.431
				C368.979,117.067,351.94,119,351.94,119z"/>
			<path fill="#311E69" d="M320.453,143.057c0,0-0.394,25.676,11.884,39.012c1.247-7.52,2.219-13.52,2.771-15.415
				c0.734-2.499,8.181-5.246,15.999-9.729L320.453,143.057z"/>
			<path fill="#3585B7" d="M339.583,77.305c0,0-12.182,0.379-14.217,2.577c-2.065,2.194,2.373,9.949,7.793,11.889
				C338.578,93.704,345.123,83.219,339.583,77.305z"/>
			<path fill="#311E69" d="M340.985,258.825c-1.165-2.554-1.166-5.14-0.989-7.262l-7.673-1.334c0,0,0.052,2.73-1.619,4.562
				c-0.69,0.837-2.453,1.226-4.923,1.781c-3.916,1.233-8.779,2.837-9.152,4.031c-0.602,2.051,20.647,5.607,24.526,4.229
				C343.16,264.091,342.288,261.671,340.985,258.825z"/>
			<path fill="#3585B7" d="M368.987,131.014c0,0-30.233,23.176-38.446,37.435c-8.206,14.285-6.209,84.08,1.079,85.097
				c7.339,1.018,18.261,0.821,24.336-14.405c4.346-10.927,3.13-52.742,3.855-58.433c0.665-5.677,46.355-13.789,40.99-37.395
				C397.895,130.459,368.987,131.014,368.987,131.014z"/>
			<path fill="#3585B7" d="M401.212,147.658c-4.774-1.07-11.203,0.648-18.572,1.19c-13.081,0.979-25.479,9.848-34.634,19.516
				c-9.156,9.609-5.062,14.67-7.955,26.501c-2.851,11.774,2.44,26.728,3.407,41.417c0.597,9.221-3.519,14.744-6.738,17.631
				c6.679-0.125,14.428-2.766,19.238-14.773c4.346-10.927,3.13-52.742,3.855-58.433
				C360.446,175.402,400.514,167.972,401.212,147.658z"/>
			<path fill="#C4C4C4" d="M356.466,50.522c0,0-42.867,39.642-25.208,54.298c11.212,9.243,31.723-15.627,35.162-25.719
				C369.806,69.012,356.466,50.522,356.466,50.522z"/>
			<path fill="#311E69" d="M366.233,171.297l-27.773-4.042c0,0-0.001,14.208,21.063,20.797c0.089-3.527,0.132-6.19,0.29-7.344
				c0.202-1.631,4.262-3.527,9.747-5.909C367.679,172.707,366.233,171.297,366.233,171.297z"/>
			<path fill="#E2E2E2" d="M376.214,180.393c61.789-20.137,34.646-102.202,33.504-115.934c-0.911-10.708-8.9-19.523-19.476-21.301
				c-16.583-2.771-29.77-1.498-41.653,17.017c-4.174,6.562,6.421,10.679,9.382,23.264c0.977,4.119-4.35,20.325-4.35,20.325
				l-36.747,36.539C316.875,140.302,341.338,192.242,376.214,180.393z"/>
			<path fill="#311E69" d="M382.593,105.512c10.6-13.996-11.479-11.117-27.172-7.708c-0.964,3.378-1.799,5.959-1.799,5.959
				l-9.153,9.109C352.084,116.177,370.337,121.645,382.593,105.512z"/>
			<g>
				<path fill="#C4C4C4" d="M409.718,64.458c-0.911-10.708-8.901-19.523-19.476-21.301c-3.492-0.585-6.818-0.984-9.995-1.091
					c1.382,1.61,2.649,3.97,3.558,7.494c2.901,11.562-0.004,30.311,3.582,38.488c3.644,8.178,5.431,18.88,2.354,30.864
					c-3.035,11.959-14.536,20.636-23.011,28.419c-7.971,7.339-24.79,1.569-33.797,16.826c10.505,11.798,25.537,22.271,43.28,16.236
					C438.002,160.255,410.86,78.19,409.718,64.458z"/>
			</g>
			<g>
				<path fill="#06B185" d="M345.651,50.522c0,23.216-18.829,42.064-42.064,42.064c-23.215,0-42.053-18.848-42.053-42.064
					c0-23.232,18.838-42.064,42.053-42.064C326.822,8.458,345.651,27.29,345.651,50.522z"/>
				<path fill="#1ED1A6" d="M337.652,50.522c0,23.216-18.849,42.064-42.065,42.064c-23.214,0-42.062-18.848-42.062-42.064
					c0-23.232,18.848-42.064,42.062-42.064C318.803,8.458,337.652,27.29,337.652,50.522z"/>
				<path fill="#06B185" d="M253.525,50.522c0,1.158,0.087,2.292,0.161,3.408h83.801c0.124-1.116,0.165-2.25,0.165-3.408
					s-0.041-2.304-0.165-3.434h-83.801C253.612,48.219,253.525,49.364,253.525,50.522z"/>
			</g>
			<g>
				<path fill="#E2E2E2" d="M395.469,49.561c-7.196-0.184-20.794,29.254-29.964,37.821c-4.253,3.958-32.904-22.948-41.868-14.984
					c-1.747,1.549-2.599,8.585-1.24,11.116c6.469,12.066,31.642,32.365,49.144,28.403c14.231-3.229,32.977-31.198,34.327-50.209
					C406.223,56.886,405.46,49.804,395.469,49.561z"/>
			</g>
			<g>
				<path fill="#C4C4C4" d="M331.936,80.602c1.908,5.002,18.74,15.657,24.228,15.005c5.489-0.633,9.201,2.9,14.375,4.805
					c5.116,1.913,11.393-6.044,13.091-13.234c1.7-7.183,8.186-13.807,13.968-17.355c4.754-2.946,5.511-13.971,5.651-17.589
					c2.616,2.563,2.827,6.467,2.619,9.474c-1.35,19.011-20.096,46.98-34.327,50.209c-17.501,3.962-42.674-16.337-49.144-28.403
					c-1.127-2.054-0.738-7.128,0.404-9.772C326.691,75.549,330.906,78.031,331.936,80.602z"/>
			</g>
			<path fill="#FF6161" d="M383.242,33.392l2.402,12.737c-0.228,1.767-10.396,5.379-12.896,2.753
				c-0.699-0.764-0.246-2.425,0.761-4.16l5.974-9.371L383.242,33.392z"/>
			<path fill="#311E69" d="M378.269,37.25c2.008-0.096,4.737-0.237,4.737-0.237s-0.591,3.079-3.652,5.04
				c-1.592,1.058-3.351,1.421-4.944,1.3L378.269,37.25z"/>
			<path fill="#FF6161" d="M381.141,28.508l1.846,7.21c0.4,2.412-1.184,4.721-3.629,5.19c-1.933,0.372-3.14,0.29-5.518-0.164
				c-2.04-0.39-2.9-2.41-2.708-5.036c0.23-3.436,1.421-6.522,2.169-8.135C374.998,23.897,379.668,23.885,381.141,28.508z"/>
			<path fill="#311E69" d="M378.732,27.939c0.967,1.568,0.841,2.077,0.779,3.249c-0.175,2.19,2.031,2.311,2.683,1.328
				c0.593-0.985,1.097,1.241,1.097,1.241l0.484,2.334c0,0,2.158-2.901,1.869-6.428C385.317,24.644,377.765,26.373,378.732,27.939z"
				/>
			<path fill="#FF6161" d="M380.849,32.005c0.09-0.457,0.191-0.911,0.215-1.358c0.044-0.885,0.37-2.154,1.594-1.438
				c1.798,1.068,1.207,5.713-0.965,5.908C380.09,35.249,380.504,33.104,380.849,32.005z"/>
			<path fill="#FF6161" d="M327.069,71.7c-0.242-0.932-1.926-2.89-3.203-3.746c-2.362-1.592-1.53-2.361-1.774-3.53
				c-0.226-1.17-2.019-0.881-1.977,1.854c0.027,1.753,1.41,3.185-0.036,2.781c-1.504-0.403-3.262-6.438-5.042-3.469
				c-2.376,3.984,0.8,10.242,7.181,11.694C324.006,77.698,328.264,76.959,327.069,71.7z"/>
			<path fill="#FFFFFF" d="M371.956,34.133c0,0,2.539,0.463,4.101,0.336c0,0-0.562,1.569-2.021,1.643
				C372.519,36.171,371.783,34.801,371.956,34.133z"/>
			<g>
				<path fill="#AD263D" d="M376.614,39.34c-1.606,0.167-2.59,0.17-4.101-0.746c-0.508-0.312-1.12-1.337-1.397-1.939
					c0.047,2.168,0.972,3.744,2.723,4.091c2.378,0.454,3.585,0.536,5.518,0.164c2.446-0.47,4.029-2.778,3.629-5.19l-0.058-0.115
					C382.048,38.373,378.375,39.171,376.614,39.34z"/>
			</g>
			<path fill="#311E69" d="M378.814,27.588c0,0-4.453,0.502-5.732-1.585c-1.316-2.081-0.947-6.686,2.517-7.234
				c4.92-0.781,6.316,3.15,6.316,3.15s5.01,1.902,3.729,8.438L378.814,27.588z"/>
			<path fill="#E2E2E2" d="M387.262,131.011c0,0,7.919,6.202,14.008,7.089c0,0-8.266,17.19-16.724,12.469
				C376.029,145.869,387.262,131.011,387.262,131.011z"/>
		</g>
		<g>
			<path fill="#C4C4C4" d="M606.749,437.394c0,0,59.29,17.083,60.601,28.793c2.826,27.65-43.233,13.672-52.524,8.683
				C605.532,469.88,606.749,437.394,606.749,437.394z"/>
			<path fill="#311E69" d="M600.036,714.455c1.87-2.731,2.34-5.773,2.488-8.203l10.118-7.089c0,0-1.577,10.192-0.025,12.604
				c0.708,1.098,2.666,1.882,5.38,3.021c4.287,2.108,9.63,4.961,9.762,6.385c0.338,2.473-24.903,2.516-29.122,0.168
				C596.511,720.068,598.043,717.459,600.036,714.455z"/>
			<path fill="#311E69" d="M553.716,714.455c1.871-2.731,2.339-5.773,2.607-8.203l9.083-0.027c0,0-0.662,3.131,0.891,5.542
				c0.707,1.098,2.666,1.882,5.38,3.021c4.287,2.108,9.631,4.961,9.761,6.385c0.338,2.473-24.902,2.516-29.008,0.168
				C550.19,720.068,551.723,717.459,553.716,714.455z"/>
			<path fill="#311E69" d="M594.121,425.098c0,0,0.822-5.223,0-7.449c-0.936-2.106-2.132-8.981-11.572-7.577
				c-10.872,1.538-6.304,19.657-3.057,20.716C582.86,431.728,594.121,425.098,594.121,425.098z"/>
			<path fill="#2E88BF" d="M547.318,537.059c0.091-2.638,6.419-4.628,7.07-6.91c9.444,0.845,33.963,2.386,57.877-2.026
				c2.992,7.102,11.117,50.438,12.391,57.995c8.519,48.398-6.338,95.484-9.773,120.107c-0.474,3.636-7.219,2.783-10.872,3.578
				c-7.088,1.566-8.195,0.069-11.295-3.578c-5.805-6.966,4.929-86.933,4.929-86.933l-8.851-53.627
				c-1.617,19.843-0.126,37.433-2.349,53.627c-3.209,24.124-8.526,65.205-15.139,88.31c-0.903,3.38-11.797,2.043-17.528,1.367
				c-1.503-0.242-2.306-1.498-2.454-2.997c-3.917-26.91-3.014-95.999-3.014-95.999S546.313,559.325,547.318,537.059z"/>
			<g>
				<path fill="#2E88BF" d="M624.656,586.117c-1.273-7.557-9.398-50.894-12.391-57.995c-8.356,1.57-16.876,2.382-24.733,2.762
					c4.77,14.867,21.196,65.157,25.703,70.46c5.165,6.115,7.752,9.432,4.438,17.185c-3.201,7.71-10.337,16.954-7.855,25.536
					c2.58,8.588,3.103,6.207-0.098,14.279c-3.321,8.017-3.733,26.573-3.733,26.573l-3.27,25.194
					c0.414-0.104,0.844-0.235,1.294-0.309c3.653-0.795,10.398,0.058,10.872-3.578C618.318,681.602,633.175,634.516,624.656,586.117z
					"/>
			</g>
			<path fill="#2E88BF" d="M573.863,531.056c1.168,3.115,2.373,6.432,2.791,9.181c1.482,9.272-0.659,18.315-5.041,28.018
				c-4.384,9.592-1.996,44.955-0.685,60.41c1.431,15.343,0.825,34.845-4.488,40.338c-5.43,5.57-5.332,9.482-4.192,21.807
				c0.65,6.892,0.506,13.957,0.379,18.967c4.282,0.12,8.176-0.246,8.68-2.174c6.612-23.104,11.93-64.186,15.139-88.31
				c2.223-16.194,0.731-33.784,2.349-53.627l1.626,10.097c-0.959-15.93-2.804-33.453-5.854-44.796
				C580.863,531.058,577.158,531.08,573.863,531.056z"/>
			<path fill="#311E69" d="M553.003,603.906c0,0,8.967,13.925,33.345,16.357c0.032-0.361,0.065-0.701,0.098-0.972
				c0.464-3.751,0.793-7.563,1.048-11.374L553.003,603.906z"/>
			<path fill="#311E69" d="M627.273,614.727c-0.05-5.377-0.355-10.804-0.969-16.257l-28.206,12.089
				C598.099,610.559,604.06,618.83,627.273,614.727z"/>
			<path fill="#E2E2E2" d="M544.699,465.063c-0.073-14.054,5.906-22.917,28.34-28.084c22.084-5.253,42.256-0.241,46.348,9.087
				c6.821,15.83,0.565,28.349-0.527,44.038c-1.715,26.489,12.356,118.36,12.356,118.36s-36.091,14.949-82.144-0.336
				c-1.608-0.496-2.806-2.761-2.689-4.448l1.478-92.958C547.86,510.722,544.758,476.415,544.699,465.063z"/>
			<g>
				<path fill="#1E1240" d="M579.522,420.346c3.441,2.229,10.857,2.203,14.813,1.943c-0.073,1.561-0.215,2.809-0.215,2.809
					s-11.261,6.63-14.629,5.689c-2.061-0.686-4.698-8.26-3.496-14.109C576.708,417.912,577.824,419.207,579.522,420.346z"/>
			</g>
			<path fill="#FF6161" d="M581.417,424.901l-4.763,14.387c-0.011,2.043,11.237,7.839,14.475,5.172
				c1.021-0.775,0.719-2.758-0.158-4.977l-5.414-11.758L581.417,424.901z"/>
			<path fill="#311E69" d="M590.251,437.941l-2.963-6.286l-5.127,1.417C582.161,433.072,586.345,436.826,590.251,437.941z"/>
			<path fill="#FF6161" d="M584.803,419.144l-4.159,7.697c-1.155,2.538-0.005,5.624,2.632,6.829
				c2.035,1.035,3.492,1.331,6.303,1.439c2.362,0.09,3.94-1.906,4.554-4.974c0.61-3.933,0.154-7.788-0.222-9.799
				C593.085,415.681,587.861,414.387,584.803,419.144z"/>
			<path fill="#FFFFFF" d="M588.86,426.656c0,0,1.94,0.613,4.695,0.315c0,0-0.075,1.59-1.283,1.901
				C590.953,429.206,589.507,428.873,588.86,426.656z"/>
			<path fill="#AD263D" d="M591.37,432.813c-2.569-0.92-6.62,1.511-9.646-2.492c-0.702-0.986-0.861-2.64-1.016-3.716l-0.065,0.236
				c-1.155,2.538-0.005,5.624,2.632,6.829c2.035,1.035,3.492,1.331,6.303,1.439c1.196,0.046,2.251-0.416,3.021-1.279
				C592.704,433.587,592.087,433.14,591.37,432.813z"/>
			<g>
				<path fill="#C4C4C4" d="M618.859,490.104c1.093-15.689,7.349-28.208,0.527-44.038c-2.576-5.868-11.537-10.062-23.329-10.973
					c2.664,5.066,6.034,12.87,7.591,22.112c2.263,13.09-7.176,117.938-10.957,157.846c23.319-0.284,38.524-6.587,38.524-6.587
					S617.145,516.593,618.859,490.104z"/>
			</g>
			<path fill="#311E69" d="M594.497,414.333c1.205,1.225,0.449,4.13-1.124,4.877c-1.826,0.811-5.367,1.42-6.572,1.821
				c-1.832,0.53-1.424,2.792-2.64,2.826s-1.333-1.679-1.521-2.724c-0.068-0.925-0.856-5.582,3.048-7.381
				C588.265,412.623,591.788,411.459,594.497,414.333z"/>
			<path fill="#311E69" d="M556.866,500.21c0,0,2.411,16.223,19.13,26.486c16.721,10.38,30.715,2.786,30.715,2.786l2.281-8.615
				L556.866,500.21z"/>
			<path fill="#FFFFFF" d="M630.951,438.107l-51.92,119.37c-1.937,4.413-1.925,9.44,0.03,13.942
				c1.534,3.458,1.902,7.209,1.067,10.94c-0.396,1.656,0.448,3.462,2.036,4.103l2.436,1.067l2.555,1.106
				c1.588,0.722,3.481,0.104,4.394-1.262c2.167-3.124,5.127-5.481,8.787-6.796c4.486-1.59,8.247-4.926,10.183-9.431l51.92-119.369
				L630.951,438.107z"/>
			<path fill="#1ED1A6" d="M665.432,452.137l-1.977-0.956l19.922-45.744c3.906-8.98-0.289-19.538-9.27-23.481l0,0
				c-8.981-3.917-19.525,0.218-23.433,9.199l-19.914,45.864l-1.973-0.837c-3.269-1.434-6.923,0.06-8.356,3.211
				c-1.313,3.151,0.18,6.925,3.331,8.238l36.644,15.955c3.151,1.434,6.824-0.06,8.238-3.211
				C670.052,457.224,668.585,453.451,665.432,452.137z"/>
			<path fill="#FF6161" d="M583.785,423.425c-0.014-0.492,0.028-1.102,0.213-1.589c0.123-1.057,0.145-2.602-1.46-2.035
				c-2.354,0.595-3.046,6.024-0.653,6.851C583.728,427.328,583.819,424.822,583.785,423.425z"/>
			<g>
				<path fill="#E2E2E2" d="M567.465,451.063c4.989,6.722,11.566,39.362,23.915,39.885c1.998,0.184,55.718-10.359,55.718-10.359
					s7.035,12.548,0.188,24.27c-8.572,14.84-47.142,28.923-70.116,17.886c-22.975-11.156-28.143-45.91-28.597-55.665
					C547.395,443.237,561.945,443.557,567.465,451.063z"/>
				<g>
					<path fill="#C4C4C4" d="M554.965,447.562c-1.176,5.826-2.818,16.71-0.875,24.443c2.757,10.975,9.635,32.579,21.346,34.403
						c11.71,1.813,14.053,8.641,23.931,7.396c9.998-1.245,34.454-16.247,41.187-24.903c2.406-3.131,5.337-4.401,7.969-4.804
						c1.686,4.476,3.373,12.87-1.235,20.761c-8.572,14.84-47.142,28.923-70.116,17.886c-22.975-11.156-28.143-45.91-28.597-55.665
						C547.94,455.672,551.025,449.801,554.965,447.562z"/>
				</g>
			</g>
			<path fill="#FF6161" d="M647.321,487.054c2.732-0.392,7.753-4.033,7.56-6.819c-1.355-13.463-4.648-1.462-5.57-1.584
				c-0.913-0.256,0.231-1.864-0.269-3.855c-0.28-0.966-1.603-1.111-1.566-0.697c0.112,4.14-6.862,3.595-5.028,10.463
				C642.847,486.109,645.747,487.326,647.321,487.054z"/>
			<path fill="#FF6161" d="M658.095,470.832c0.099-0.718,0.134-1.441,0.117-2.171c-0.032-1.338-0.204-3.902-1.32-4.779
				c-1.563-1.389-6.204-2.629-5.876-1.858c0.209,0.771,4.023,2.598,4.023,2.598s-4.645-0.94-5.881-0.33
				c-1.236,0.495-0.48,2.753,0.354,3.559c0.835,0.806,4.258,5.493,6.267,5.93C657.193,474.114,657.786,472.111,658.095,470.832z"/>
			<path fill="#DD2D2C" d="M586.067,556.82l6.133-15.293c2.454-6.283,7.888-10.966,14.496-12.529l12.778-3.051
				c1.73-0.417,3.273,1.425,2.628,3.095l-14.763,36.279c-1.305,3.005-3.474,5.39-6.438,6.698c-3.066,1.435-6.65,3.4-7.328,5.031
				c-1.02,3.006-8.681,0.63-8.059-2.376c0.419-2.141,0.665-6.698-0.146-10.148C584.833,562.037,585.155,559.338,586.067,556.82z"/>
			<path fill="#06B185" d="M674.107,381.955L674.107,381.955c-0.408-0.195-0.818-0.356-1.229-0.473
				c1.258,2.205,2.461,5.738,1.988,10.87c-1.042,10.037-22.512,54.959-22.512,54.959s-6.474-2.762-8.206-0.833
				c-1.649,1.928,1.454,3.892,1.454,6.073c0,0.767-0.683,2.329-1.489,3.979l16.293,7.056c3.151,1.434,6.824-0.06,8.238-3.211
				c1.407-3.151-0.06-6.924-3.213-8.238l-1.977-0.956l19.922-45.744C687.283,396.456,683.088,385.898,674.107,381.955z"/>
			<g>
				<path fill="#AA0707" d="M619.475,525.947l-3.333,0.773c-0.646,4.964-2.082,12.854-4.164,15.901
					c-3.123,4.459-9.29,4.963-11.883,12.414c-1.672,5.071-7.546,16.384-11.232,23.079c1.966,0.647,4.201,0.44,4.712-1.064
					c0.678-1.631,4.262-3.597,7.328-5.031c2.964-1.309,5.133-3.693,6.438-6.698l14.763-36.279
					C622.748,527.372,621.205,525.53,619.475,525.947z"/>
			</g>
		</g>
		<g>
			<path fill="#06B185" d="M251.549,643.861l-69.593-0.194l-0.502,15.063h0.024c0,3.237,15.787,5.923,35.264,5.923
				c19.475,0,35.263-2.686,35.263-5.923L251.549,643.861z"/>
			<path fill="#1ED1A6" d="M251.549,643.667c0,3.357-15.584,6.039-34.807,6.039c-19.202,0-34.786-2.682-34.786-6.039
				c0-3.237,15.584-5.923,34.786-5.923C235.965,637.744,251.549,640.43,251.549,643.667z"/>
		</g>
		<g>
			<path fill="#06B185" d="M205.932,663.937l-69.621-0.078l-0.484,15.049h0.028c0,3.252,15.786,5.938,35.257,5.938
				c19.473,0,35.262-2.687,35.262-5.938L205.932,663.937z"/>
			<path fill="#1ED1A6" d="M205.932,663.858c0,3.324-15.584,5.927-34.82,5.927c-19.218,0-34.801-2.603-34.801-5.927
				c0-3.24,15.583-5.923,34.801-5.923C190.348,657.936,205.932,660.618,205.932,663.858z"/>
		</g>
	</g>
</g>
</svg>
